<?xml version="1.0" encoding="utf-8" standalone="no"?>
<!DOCTYPE svg PUBLIC "-//W3C//DTD SVG 1.1//EN"
  "http://www.w3.org/Graphics/SVG/1.1/DTD/svg11.dtd">
<svg height="345.6pt" version="1.1" viewBox="0 0 460.8 345.6" width="460.8pt" xmlns="http://www.w3.org/2000/svg" xmlns:xlink="http://www.w3.org/1999/xlink">
 <metadata>
  <rdf:RDF xmlns:cc="http://creativecommons.org/ns#" xmlns:dc="http://purl.org/dc/elements/1.1/" xmlns:rdf="http://www.w3.org/1999/02/22-rdf-syntax-ns#">
   <cc:Work>
    <dc:type rdf:resource="http://purl.org/dc/dcmitype/StillImage"/>
    <dc:date>2022-01-03T01:27:35.866605</dc:date>
    <dc:format>image/svg+xml</dc:format>
    <dc:creator>
     <cc:Agent>
      <dc:title>Matplotlib v3.4.3, https://matplotlib.org/</dc:title>
     </cc:Agent>
    </dc:creator>
   </cc:Work>
  </rdf:RDF>
 </metadata>
 <defs>
  <style type="text/css">*{stroke-linecap:butt;stroke-linejoin:round;}</style>
 </defs>
 <g id="figure_1">
  <g id="patch_1">
   <path d="M 0 345.6 
L 460.8 345.6 
L 460.8 0 
L 0 0 
z
" style="fill:#ffffff;"/>
  </g>
  <g id="axes_1">
   <g id="patch_2">
    <path d="M 57.6 307.584 
L 414.72 307.584 
L 414.72 41.472 
L 57.6 41.472 
z
" style="fill:#ffffff;"/>
   </g>
   <g id="matplotlib.axis_1">
    <g id="xtick_1">
     <g id="line2d_1">
      <defs>
       <path d="M 0 0 
L 0 3.5 
" id="m8e65d7f037" style="stroke:#000000;stroke-width:0.8;"/>
      </defs>
      <g>
       <use style="stroke:#000000;stroke-width:0.8;" x="57.6" xlink:href="#m8e65d7f037" y="307.584"/>
      </g>
     </g>
     <g id="text_1">
      <!-- 0.0 -->
      <g transform="translate(44.8775 326.7415)scale(0.16 -0.16)">
       <defs>
        <path d="M 2034 4250 
Q 1547 4250 1301 3770 
Q 1056 3291 1056 2328 
Q 1056 1369 1301 889 
Q 1547 409 2034 409 
Q 2525 409 2770 889 
Q 3016 1369 3016 2328 
Q 3016 3291 2770 3770 
Q 2525 4250 2034 4250 
z
M 2034 4750 
Q 2819 4750 3233 4129 
Q 3647 3509 3647 2328 
Q 3647 1150 3233 529 
Q 2819 -91 2034 -91 
Q 1250 -91 836 529 
Q 422 1150 422 2328 
Q 422 3509 836 4129 
Q 1250 4750 2034 4750 
z
" id="DejaVuSans-30" transform="scale(0.015625)"/>
        <path d="M 684 794 
L 1344 794 
L 1344 0 
L 684 0 
L 684 794 
z
" id="DejaVuSans-2e" transform="scale(0.015625)"/>
       </defs>
       <use xlink:href="#DejaVuSans-30"/>
       <use x="63.623047" xlink:href="#DejaVuSans-2e"/>
       <use x="95.410156" xlink:href="#DejaVuSans-30"/>
      </g>
     </g>
    </g>
    <g id="xtick_2">
     <g id="line2d_2">
      <g>
       <use style="stroke:#000000;stroke-width:0.8;" x="129.024" xlink:href="#m8e65d7f037" y="307.584"/>
      </g>
     </g>
     <g id="text_2">
      <!-- 0.2 -->
      <g transform="translate(116.3015 326.7415)scale(0.16 -0.16)">
       <defs>
        <path d="M 1228 531 
L 3431 531 
L 3431 0 
L 469 0 
L 469 531 
Q 828 903 1448 1529 
Q 2069 2156 2228 2338 
Q 2531 2678 2651 2914 
Q 2772 3150 2772 3378 
Q 2772 3750 2511 3984 
Q 2250 4219 1831 4219 
Q 1534 4219 1204 4116 
Q 875 4013 500 3803 
L 500 4441 
Q 881 4594 1212 4672 
Q 1544 4750 1819 4750 
Q 2544 4750 2975 4387 
Q 3406 4025 3406 3419 
Q 3406 3131 3298 2873 
Q 3191 2616 2906 2266 
Q 2828 2175 2409 1742 
Q 1991 1309 1228 531 
z
" id="DejaVuSans-32" transform="scale(0.015625)"/>
       </defs>
       <use xlink:href="#DejaVuSans-30"/>
       <use x="63.623047" xlink:href="#DejaVuSans-2e"/>
       <use x="95.410156" xlink:href="#DejaVuSans-32"/>
      </g>
     </g>
    </g>
    <g id="xtick_3">
     <g id="line2d_3">
      <g>
       <use style="stroke:#000000;stroke-width:0.8;" x="200.448" xlink:href="#m8e65d7f037" y="307.584"/>
      </g>
     </g>
     <g id="text_3">
      <!-- 0.4 -->
      <g transform="translate(187.7255 326.7415)scale(0.16 -0.16)">
       <defs>
        <path d="M 2419 4116 
L 825 1625 
L 2419 1625 
L 2419 4116 
z
M 2253 4666 
L 3047 4666 
L 3047 1625 
L 3713 1625 
L 3713 1100 
L 3047 1100 
L 3047 0 
L 2419 0 
L 2419 1100 
L 313 1100 
L 313 1709 
L 2253 4666 
z
" id="DejaVuSans-34" transform="scale(0.015625)"/>
       </defs>
       <use xlink:href="#DejaVuSans-30"/>
       <use x="63.623047" xlink:href="#DejaVuSans-2e"/>
       <use x="95.410156" xlink:href="#DejaVuSans-34"/>
      </g>
     </g>
    </g>
    <g id="xtick_4">
     <g id="line2d_4">
      <g>
       <use style="stroke:#000000;stroke-width:0.8;" x="271.872" xlink:href="#m8e65d7f037" y="307.584"/>
      </g>
     </g>
     <g id="text_4">
      <!-- 0.6 -->
      <g transform="translate(259.1495 326.7415)scale(0.16 -0.16)">
       <defs>
        <path d="M 2113 2584 
Q 1688 2584 1439 2293 
Q 1191 2003 1191 1497 
Q 1191 994 1439 701 
Q 1688 409 2113 409 
Q 2538 409 2786 701 
Q 3034 994 3034 1497 
Q 3034 2003 2786 2293 
Q 2538 2584 2113 2584 
z
M 3366 4563 
L 3366 3988 
Q 3128 4100 2886 4159 
Q 2644 4219 2406 4219 
Q 1781 4219 1451 3797 
Q 1122 3375 1075 2522 
Q 1259 2794 1537 2939 
Q 1816 3084 2150 3084 
Q 2853 3084 3261 2657 
Q 3669 2231 3669 1497 
Q 3669 778 3244 343 
Q 2819 -91 2113 -91 
Q 1303 -91 875 529 
Q 447 1150 447 2328 
Q 447 3434 972 4092 
Q 1497 4750 2381 4750 
Q 2619 4750 2861 4703 
Q 3103 4656 3366 4563 
z
" id="DejaVuSans-36" transform="scale(0.015625)"/>
       </defs>
       <use xlink:href="#DejaVuSans-30"/>
       <use x="63.623047" xlink:href="#DejaVuSans-2e"/>
       <use x="95.410156" xlink:href="#DejaVuSans-36"/>
      </g>
     </g>
    </g>
    <g id="xtick_5">
     <g id="line2d_5">
      <g>
       <use style="stroke:#000000;stroke-width:0.8;" x="343.296" xlink:href="#m8e65d7f037" y="307.584"/>
      </g>
     </g>
     <g id="text_5">
      <!-- 0.8 -->
      <g transform="translate(330.5735 326.7415)scale(0.16 -0.16)">
       <defs>
        <path d="M 2034 2216 
Q 1584 2216 1326 1975 
Q 1069 1734 1069 1313 
Q 1069 891 1326 650 
Q 1584 409 2034 409 
Q 2484 409 2743 651 
Q 3003 894 3003 1313 
Q 3003 1734 2745 1975 
Q 2488 2216 2034 2216 
z
M 1403 2484 
Q 997 2584 770 2862 
Q 544 3141 544 3541 
Q 544 4100 942 4425 
Q 1341 4750 2034 4750 
Q 2731 4750 3128 4425 
Q 3525 4100 3525 3541 
Q 3525 3141 3298 2862 
Q 3072 2584 2669 2484 
Q 3125 2378 3379 2068 
Q 3634 1759 3634 1313 
Q 3634 634 3220 271 
Q 2806 -91 2034 -91 
Q 1263 -91 848 271 
Q 434 634 434 1313 
Q 434 1759 690 2068 
Q 947 2378 1403 2484 
z
M 1172 3481 
Q 1172 3119 1398 2916 
Q 1625 2713 2034 2713 
Q 2441 2713 2670 2916 
Q 2900 3119 2900 3481 
Q 2900 3844 2670 4047 
Q 2441 4250 2034 4250 
Q 1625 4250 1398 4047 
Q 1172 3844 1172 3481 
z
" id="DejaVuSans-38" transform="scale(0.015625)"/>
       </defs>
       <use xlink:href="#DejaVuSans-30"/>
       <use x="63.623047" xlink:href="#DejaVuSans-2e"/>
       <use x="95.410156" xlink:href="#DejaVuSans-38"/>
      </g>
     </g>
    </g>
    <g id="xtick_6">
     <g id="line2d_6">
      <g>
       <use style="stroke:#000000;stroke-width:0.8;" x="414.72" xlink:href="#m8e65d7f037" y="307.584"/>
      </g>
     </g>
     <g id="text_6">
      <!-- 1.0 -->
      <g transform="translate(401.9975 326.7415)scale(0.16 -0.16)">
       <defs>
        <path d="M 794 531 
L 1825 531 
L 1825 4091 
L 703 3866 
L 703 4441 
L 1819 4666 
L 2450 4666 
L 2450 531 
L 3481 531 
L 3481 0 
L 794 0 
L 794 531 
z
" id="DejaVuSans-31" transform="scale(0.015625)"/>
       </defs>
       <use xlink:href="#DejaVuSans-31"/>
       <use x="63.623047" xlink:href="#DejaVuSans-2e"/>
       <use x="95.410156" xlink:href="#DejaVuSans-30"/>
      </g>
     </g>
    </g>
    <g id="text_7">
     <!-- False Positive Rate -->
     <g transform="translate(161.81375 346.2265)scale(0.16 -0.16)">
      <defs>
       <path d="M 628 4666 
L 3309 4666 
L 3309 4134 
L 1259 4134 
L 1259 2759 
L 3109 2759 
L 3109 2228 
L 1259 2228 
L 1259 0 
L 628 0 
L 628 4666 
z
" id="DejaVuSans-46" transform="scale(0.015625)"/>
       <path d="M 2194 1759 
Q 1497 1759 1228 1600 
Q 959 1441 959 1056 
Q 959 750 1161 570 
Q 1363 391 1709 391 
Q 2188 391 2477 730 
Q 2766 1069 2766 1631 
L 2766 1759 
L 2194 1759 
z
M 3341 1997 
L 3341 0 
L 2766 0 
L 2766 531 
Q 2569 213 2275 61 
Q 1981 -91 1556 -91 
Q 1019 -91 701 211 
Q 384 513 384 1019 
Q 384 1609 779 1909 
Q 1175 2209 1959 2209 
L 2766 2209 
L 2766 2266 
Q 2766 2663 2505 2880 
Q 2244 3097 1772 3097 
Q 1472 3097 1187 3025 
Q 903 2953 641 2809 
L 641 3341 
Q 956 3463 1253 3523 
Q 1550 3584 1831 3584 
Q 2591 3584 2966 3190 
Q 3341 2797 3341 1997 
z
" id="DejaVuSans-61" transform="scale(0.015625)"/>
       <path d="M 603 4863 
L 1178 4863 
L 1178 0 
L 603 0 
L 603 4863 
z
" id="DejaVuSans-6c" transform="scale(0.015625)"/>
       <path d="M 2834 3397 
L 2834 2853 
Q 2591 2978 2328 3040 
Q 2066 3103 1784 3103 
Q 1356 3103 1142 2972 
Q 928 2841 928 2578 
Q 928 2378 1081 2264 
Q 1234 2150 1697 2047 
L 1894 2003 
Q 2506 1872 2764 1633 
Q 3022 1394 3022 966 
Q 3022 478 2636 193 
Q 2250 -91 1575 -91 
Q 1294 -91 989 -36 
Q 684 19 347 128 
L 347 722 
Q 666 556 975 473 
Q 1284 391 1588 391 
Q 1994 391 2212 530 
Q 2431 669 2431 922 
Q 2431 1156 2273 1281 
Q 2116 1406 1581 1522 
L 1381 1569 
Q 847 1681 609 1914 
Q 372 2147 372 2553 
Q 372 3047 722 3315 
Q 1072 3584 1716 3584 
Q 2034 3584 2315 3537 
Q 2597 3491 2834 3397 
z
" id="DejaVuSans-73" transform="scale(0.015625)"/>
       <path d="M 3597 1894 
L 3597 1613 
L 953 1613 
Q 991 1019 1311 708 
Q 1631 397 2203 397 
Q 2534 397 2845 478 
Q 3156 559 3463 722 
L 3463 178 
Q 3153 47 2828 -22 
Q 2503 -91 2169 -91 
Q 1331 -91 842 396 
Q 353 884 353 1716 
Q 353 2575 817 3079 
Q 1281 3584 2069 3584 
Q 2775 3584 3186 3129 
Q 3597 2675 3597 1894 
z
M 3022 2063 
Q 3016 2534 2758 2815 
Q 2500 3097 2075 3097 
Q 1594 3097 1305 2825 
Q 1016 2553 972 2059 
L 3022 2063 
z
" id="DejaVuSans-65" transform="scale(0.015625)"/>
       <path id="DejaVuSans-20" transform="scale(0.015625)"/>
       <path d="M 1259 4147 
L 1259 2394 
L 2053 2394 
Q 2494 2394 2734 2622 
Q 2975 2850 2975 3272 
Q 2975 3691 2734 3919 
Q 2494 4147 2053 4147 
L 1259 4147 
z
M 628 4666 
L 2053 4666 
Q 2838 4666 3239 4311 
Q 3641 3956 3641 3272 
Q 3641 2581 3239 2228 
Q 2838 1875 2053 1875 
L 1259 1875 
L 1259 0 
L 628 0 
L 628 4666 
z
" id="DejaVuSans-50" transform="scale(0.015625)"/>
       <path d="M 1959 3097 
Q 1497 3097 1228 2736 
Q 959 2375 959 1747 
Q 959 1119 1226 758 
Q 1494 397 1959 397 
Q 2419 397 2687 759 
Q 2956 1122 2956 1747 
Q 2956 2369 2687 2733 
Q 2419 3097 1959 3097 
z
M 1959 3584 
Q 2709 3584 3137 3096 
Q 3566 2609 3566 1747 
Q 3566 888 3137 398 
Q 2709 -91 1959 -91 
Q 1206 -91 779 398 
Q 353 888 353 1747 
Q 353 2609 779 3096 
Q 1206 3584 1959 3584 
z
" id="DejaVuSans-6f" transform="scale(0.015625)"/>
       <path d="M 603 3500 
L 1178 3500 
L 1178 0 
L 603 0 
L 603 3500 
z
M 603 4863 
L 1178 4863 
L 1178 4134 
L 603 4134 
L 603 4863 
z
" id="DejaVuSans-69" transform="scale(0.015625)"/>
       <path d="M 1172 4494 
L 1172 3500 
L 2356 3500 
L 2356 3053 
L 1172 3053 
L 1172 1153 
Q 1172 725 1289 603 
Q 1406 481 1766 481 
L 2356 481 
L 2356 0 
L 1766 0 
Q 1100 0 847 248 
Q 594 497 594 1153 
L 594 3053 
L 172 3053 
L 172 3500 
L 594 3500 
L 594 4494 
L 1172 4494 
z
" id="DejaVuSans-74" transform="scale(0.015625)"/>
       <path d="M 191 3500 
L 800 3500 
L 1894 563 
L 2988 3500 
L 3597 3500 
L 2284 0 
L 1503 0 
L 191 3500 
z
" id="DejaVuSans-76" transform="scale(0.015625)"/>
       <path d="M 2841 2188 
Q 3044 2119 3236 1894 
Q 3428 1669 3622 1275 
L 4263 0 
L 3584 0 
L 2988 1197 
Q 2756 1666 2539 1819 
Q 2322 1972 1947 1972 
L 1259 1972 
L 1259 0 
L 628 0 
L 628 4666 
L 2053 4666 
Q 2853 4666 3247 4331 
Q 3641 3997 3641 3322 
Q 3641 2881 3436 2590 
Q 3231 2300 2841 2188 
z
M 1259 4147 
L 1259 2491 
L 2053 2491 
Q 2509 2491 2742 2702 
Q 2975 2913 2975 3322 
Q 2975 3731 2742 3939 
Q 2509 4147 2053 4147 
L 1259 4147 
z
" id="DejaVuSans-52" transform="scale(0.015625)"/>
      </defs>
      <use xlink:href="#DejaVuSans-46"/>
      <use x="48.394531" xlink:href="#DejaVuSans-61"/>
      <use x="109.673828" xlink:href="#DejaVuSans-6c"/>
      <use x="137.457031" xlink:href="#DejaVuSans-73"/>
      <use x="189.556641" xlink:href="#DejaVuSans-65"/>
      <use x="251.080078" xlink:href="#DejaVuSans-20"/>
      <use x="282.867188" xlink:href="#DejaVuSans-50"/>
      <use x="339.544922" xlink:href="#DejaVuSans-6f"/>
      <use x="400.726562" xlink:href="#DejaVuSans-73"/>
      <use x="452.826172" xlink:href="#DejaVuSans-69"/>
      <use x="480.609375" xlink:href="#DejaVuSans-74"/>
      <use x="519.818359" xlink:href="#DejaVuSans-69"/>
      <use x="547.601562" xlink:href="#DejaVuSans-76"/>
      <use x="606.78125" xlink:href="#DejaVuSans-65"/>
      <use x="668.304688" xlink:href="#DejaVuSans-20"/>
      <use x="700.091797" xlink:href="#DejaVuSans-52"/>
      <use x="767.324219" xlink:href="#DejaVuSans-61"/>
      <use x="828.603516" xlink:href="#DejaVuSans-74"/>
      <use x="867.8125" xlink:href="#DejaVuSans-65"/>
     </g>
    </g>
   </g>
   <g id="matplotlib.axis_2">
    <g id="ytick_1">
     <g id="line2d_7">
      <defs>
       <path d="M 0 0 
L -3.5 0 
" id="maff6b33bba" style="stroke:#000000;stroke-width:0.8;"/>
      </defs>
      <g>
       <use style="stroke:#000000;stroke-width:0.8;" x="57.6" xlink:href="#maff6b33bba" y="307.584"/>
      </g>
     </g>
     <g id="text_8">
      <!-- 0.0 -->
      <g transform="translate(25.155 313.66275)scale(0.16 -0.16)">
       <use xlink:href="#DejaVuSans-30"/>
       <use x="63.623047" xlink:href="#DejaVuSans-2e"/>
       <use x="95.410156" xlink:href="#DejaVuSans-30"/>
      </g>
     </g>
    </g>
    <g id="ytick_2">
     <g id="line2d_8">
      <g>
       <use style="stroke:#000000;stroke-width:0.8;" x="57.6" xlink:href="#maff6b33bba" y="256.896"/>
      </g>
     </g>
     <g id="text_9">
      <!-- 0.2 -->
      <g transform="translate(25.155 262.97475)scale(0.16 -0.16)">
       <use xlink:href="#DejaVuSans-30"/>
       <use x="63.623047" xlink:href="#DejaVuSans-2e"/>
       <use x="95.410156" xlink:href="#DejaVuSans-32"/>
      </g>
     </g>
    </g>
    <g id="ytick_3">
     <g id="line2d_9">
      <g>
       <use style="stroke:#000000;stroke-width:0.8;" x="57.6" xlink:href="#maff6b33bba" y="206.208"/>
      </g>
     </g>
     <g id="text_10">
      <!-- 0.4 -->
      <g transform="translate(25.155 212.28675)scale(0.16 -0.16)">
       <use xlink:href="#DejaVuSans-30"/>
       <use x="63.623047" xlink:href="#DejaVuSans-2e"/>
       <use x="95.410156" xlink:href="#DejaVuSans-34"/>
      </g>
     </g>
    </g>
    <g id="ytick_4">
     <g id="line2d_10">
      <g>
       <use style="stroke:#000000;stroke-width:0.8;" x="57.6" xlink:href="#maff6b33bba" y="155.52"/>
      </g>
     </g>
     <g id="text_11">
      <!-- 0.6 -->
      <g transform="translate(25.155 161.59875)scale(0.16 -0.16)">
       <use xlink:href="#DejaVuSans-30"/>
       <use x="63.623047" xlink:href="#DejaVuSans-2e"/>
       <use x="95.410156" xlink:href="#DejaVuSans-36"/>
      </g>
     </g>
    </g>
    <g id="ytick_5">
     <g id="line2d_11">
      <g>
       <use style="stroke:#000000;stroke-width:0.8;" x="57.6" xlink:href="#maff6b33bba" y="104.832"/>
      </g>
     </g>
     <g id="text_12">
      <!-- 0.8 -->
      <g transform="translate(25.155 110.91075)scale(0.16 -0.16)">
       <use xlink:href="#DejaVuSans-30"/>
       <use x="63.623047" xlink:href="#DejaVuSans-2e"/>
       <use x="95.410156" xlink:href="#DejaVuSans-38"/>
      </g>
     </g>
    </g>
    <g id="ytick_6">
     <g id="line2d_12">
      <g>
       <use style="stroke:#000000;stroke-width:0.8;" x="57.6" xlink:href="#maff6b33bba" y="54.144"/>
      </g>
     </g>
     <g id="text_13">
      <!-- 1.0 -->
      <g transform="translate(25.155 60.22275)scale(0.16 -0.16)">
       <use xlink:href="#DejaVuSans-31"/>
       <use x="63.623047" xlink:href="#DejaVuSans-2e"/>
       <use x="95.410156" xlink:href="#DejaVuSans-30"/>
      </g>
     </g>
    </g>
    <g id="text_14">
     <!-- True Positive Rate -->
     <g transform="translate(17.8275 245.7755)rotate(-90)scale(0.16 -0.16)">
      <defs>
       <path d="M -19 4666 
L 3928 4666 
L 3928 4134 
L 2272 4134 
L 2272 0 
L 1638 0 
L 1638 4134 
L -19 4134 
L -19 4666 
z
" id="DejaVuSans-54" transform="scale(0.015625)"/>
       <path d="M 2631 2963 
Q 2534 3019 2420 3045 
Q 2306 3072 2169 3072 
Q 1681 3072 1420 2755 
Q 1159 2438 1159 1844 
L 1159 0 
L 581 0 
L 581 3500 
L 1159 3500 
L 1159 2956 
Q 1341 3275 1631 3429 
Q 1922 3584 2338 3584 
Q 2397 3584 2469 3576 
Q 2541 3569 2628 3553 
L 2631 2963 
z
" id="DejaVuSans-72" transform="scale(0.015625)"/>
       <path d="M 544 1381 
L 544 3500 
L 1119 3500 
L 1119 1403 
Q 1119 906 1312 657 
Q 1506 409 1894 409 
Q 2359 409 2629 706 
Q 2900 1003 2900 1516 
L 2900 3500 
L 3475 3500 
L 3475 0 
L 2900 0 
L 2900 538 
Q 2691 219 2414 64 
Q 2138 -91 1772 -91 
Q 1169 -91 856 284 
Q 544 659 544 1381 
z
M 1991 3584 
L 1991 3584 
z
" id="DejaVuSans-75" transform="scale(0.015625)"/>
      </defs>
      <use xlink:href="#DejaVuSans-54"/>
      <use x="46.333984" xlink:href="#DejaVuSans-72"/>
      <use x="87.447266" xlink:href="#DejaVuSans-75"/>
      <use x="150.826172" xlink:href="#DejaVuSans-65"/>
      <use x="212.349609" xlink:href="#DejaVuSans-20"/>
      <use x="244.136719" xlink:href="#DejaVuSans-50"/>
      <use x="300.814453" xlink:href="#DejaVuSans-6f"/>
      <use x="361.996094" xlink:href="#DejaVuSans-73"/>
      <use x="414.095703" xlink:href="#DejaVuSans-69"/>
      <use x="441.878906" xlink:href="#DejaVuSans-74"/>
      <use x="481.087891" xlink:href="#DejaVuSans-69"/>
      <use x="508.871094" xlink:href="#DejaVuSans-76"/>
      <use x="568.050781" xlink:href="#DejaVuSans-65"/>
      <use x="629.574219" xlink:href="#DejaVuSans-20"/>
      <use x="661.361328" xlink:href="#DejaVuSans-52"/>
      <use x="728.59375" xlink:href="#DejaVuSans-61"/>
      <use x="789.873047" xlink:href="#DejaVuSans-74"/>
      <use x="829.082031" xlink:href="#DejaVuSans-65"/>
     </g>
    </g>
   </g>
   <g id="line2d_13">
    <path clip-path="url(#p72551cb360)" d="M 57.6 307.584 
L 57.6 262.609036 
L 58.028201 262.609036 
L 58.028201 230.701122 
L 58.456403 230.701122 
L 58.456403 142.574504 
L 58.884604 142.574504 
L 58.884604 134.673496 
L 59.312806 134.673496 
L 59.312806 117.655942 
L 59.741007 117.655942 
L 59.741007 113.705439 
L 60.169209 113.705439 
L 60.169209 107.931626 
L 60.59741 107.931626 
L 60.59741 107.627741 
L 61.025612 107.627741 
L 61.025612 103.373353 
L 61.453813 103.373353 
L 61.453813 101.246158 
L 61.882014 101.246158 
L 61.882014 100.942273 
L 62.310216 100.942273 
L 62.310216 100.030619 
L 62.738417 100.030619 
L 62.738417 99.422849 
L 63.166619 99.422849 
L 63.166619 96.687885 
L 63.59482 96.687885 
L 63.59482 94.560691 
L 64.023022 94.560691 
L 64.023022 93.345151 
L 64.451223 93.345151 
L 64.451223 92.737381 
L 64.879424 92.737381 
L 64.879424 92.433496 
L 65.307626 92.433496 
L 65.307626 89.698532 
L 65.735827 89.698532 
L 65.735827 86.963568 
L 66.164029 86.963568 
L 66.164029 85.444144 
L 67.448633 85.444144 
L 67.448633 81.49364 
L 68.305036 81.49364 
L 68.305036 80.581986 
L 68.733237 80.581986 
L 68.733237 79.062561 
L 69.161439 79.062561 
L 69.161439 77.543137 
L 69.58964 77.543137 
L 69.58964 77.239252 
L 70.446043 77.239252 
L 70.446043 76.935367 
L 70.874245 76.935367 
L 70.874245 76.631482 
L 71.302446 76.631482 
L 71.302446 76.023712 
L 71.730647 76.023712 
L 71.730647 75.719827 
L 72.158849 75.719827 
L 72.158849 73.896518 
L 72.58705 73.896518 
L 72.58705 72.984863 
L 73.015252 72.984863 
L 73.015252 72.073209 
L 73.443453 72.073209 
L 73.443453 71.769324 
L 73.871655 71.769324 
L 73.871655 70.857669 
L 74.299856 70.857669 
L 74.299856 70.553784 
L 75.156259 70.553784 
L 75.156259 67.81882 
L 81.151079 67.81882 
L 81.151079 67.514935 
L 83.292086 67.514935 
L 83.292086 67.21105 
L 83.720288 67.21105 
L 83.720288 66.603281 
L 84.576691 66.603281 
L 84.576691 65.995511 
L 85.433094 65.995511 
L 85.433094 65.083856 
L 86.289496 65.083856 
L 86.289496 64.779971 
L 86.717698 64.779971 
L 86.717698 64.172201 
L 87.145899 64.172201 
L 87.145899 63.868317 
L 87.574101 63.868317 
L 87.574101 63.564432 
L 88.858705 63.564432 
L 88.858705 62.956662 
L 90.571511 62.956662 
L 90.571511 62.652777 
L 91.427914 62.652777 
L 91.427914 62.045007 
L 92.284317 62.045007 
L 92.284317 61.741122 
L 93.140719 61.741122 
L 93.140719 61.437237 
L 93.997122 61.437237 
L 93.997122 61.133353 
L 94.425324 61.133353 
L 94.425324 60.829468 
L 95.281727 60.829468 
L 95.281727 60.525583 
L 97.422734 60.525583 
L 97.422734 60.221698 
L 97.850935 60.221698 
L 97.850935 59.917813 
L 99.13554 59.917813 
L 99.13554 59.613928 
L 102.561151 59.613928 
L 102.561151 59.310043 
L 104.702158 59.310043 
L 104.702158 59.006158 
L 106.414964 59.006158 
L 106.414964 58.702273 
L 106.843165 58.702273 
L 106.843165 58.398388 
L 107.699568 58.398388 
L 107.699568 58.094504 
L 108.12777 58.094504 
L 108.12777 57.790619 
L 113.266187 57.790619 
L 113.266187 57.486734 
L 115.407194 57.486734 
L 115.407194 57.182849 
L 126.968633 57.182849 
L 126.968633 56.575079 
L 132.963453 56.575079 
L 132.963453 56.271194 
L 147.522302 56.271194 
L 147.522302 55.967309 
L 150.091511 55.967309 
L 150.091511 55.663424 
L 155.658129 55.663424 
L 155.658129 55.35954 
L 168.932374 55.35954 
L 168.932374 55.055655 
L 173.64259 55.055655 
L 173.64259 54.75177 
L 183.491223 54.75177 
L 183.491223 54.447885 
L 323.941295 54.447885 
L 323.941295 54.144 
L 414.72 54.144 
L 414.72 54.144 
" style="fill:none;stroke:#000000;stroke-linecap:square;stroke-width:2;"/>
   </g>
   <g id="line2d_14">
    <path clip-path="url(#p72551cb360)" d="M 57.6 307.584 
L 57.6 243.160403 
L 58.028201 243.160403 
L 58.028201 143.486158 
L 58.456403 143.486158 
L 58.456403 136.496806 
L 58.884604 136.496806 
L 58.884604 133.154072 
L 59.312806 133.154072 
L 59.312806 123.73364 
L 59.741007 123.73364 
L 59.741007 119.783137 
L 60.169209 119.783137 
L 60.169209 117.959827 
L 60.59741 117.959827 
L 60.59741 107.627741 
L 61.025612 107.627741 
L 61.025612 103.373353 
L 61.882014 103.373353 
L 61.882014 95.16846 
L 62.310216 95.16846 
L 62.310216 93.649036 
L 62.738417 93.649036 
L 62.738417 90.002417 
L 63.166619 90.002417 
L 63.166619 89.698532 
L 63.59482 89.698532 
L 63.59482 89.090763 
L 64.023022 89.090763 
L 64.023022 88.786878 
L 64.451223 88.786878 
L 64.451223 87.571338 
L 64.879424 87.571338 
L 64.879424 86.051914 
L 65.307626 86.051914 
L 65.307626 83.620835 
L 65.735827 83.620835 
L 65.735827 82.70918 
L 66.164029 82.70918 
L 66.164029 82.405295 
L 66.59223 82.405295 
L 66.59223 80.885871 
L 67.020432 80.885871 
L 67.020432 80.278101 
L 67.448633 80.278101 
L 67.448633 79.974216 
L 67.876835 79.974216 
L 67.876835 79.366446 
L 68.305036 79.366446 
L 68.305036 78.758676 
L 68.733237 78.758676 
L 68.733237 78.150906 
L 69.58964 78.150906 
L 69.58964 77.543137 
L 70.017842 77.543137 
L 70.017842 76.327597 
L 70.874245 76.327597 
L 70.874245 75.415942 
L 71.302446 75.415942 
L 71.302446 75.112058 
L 71.730647 75.112058 
L 71.730647 74.808173 
L 72.58705 74.808173 
L 72.58705 74.504288 
L 73.015252 74.504288 
L 73.015252 73.896518 
L 74.299856 73.896518 
L 74.299856 73.288748 
L 75.156259 73.288748 
L 75.156259 72.680978 
L 76.012662 72.680978 
L 76.012662 72.377094 
L 76.440863 72.377094 
L 76.440863 70.857669 
L 76.869065 70.857669 
L 76.869065 66.603281 
L 80.722878 66.603281 
L 80.722878 65.995511 
L 81.151079 65.995511 
L 81.151079 65.691626 
L 82.435683 65.691626 
L 82.435683 65.387741 
L 82.863885 65.387741 
L 82.863885 65.083856 
L 84.148489 65.083856 
L 84.148489 64.779971 
L 85.433094 64.779971 
L 85.433094 64.476086 
L 88.002302 64.476086 
L 88.002302 64.172201 
L 88.430504 64.172201 
L 88.430504 63.868317 
L 89.286906 63.868317 
L 89.286906 63.564432 
L 89.715108 63.564432 
L 89.715108 63.260547 
L 90.143309 63.260547 
L 90.143309 62.652777 
L 90.571511 62.652777 
L 90.571511 62.348892 
L 92.712518 62.348892 
L 92.712518 62.045007 
L 94.853525 62.045007 
L 94.853525 61.741122 
L 96.138129 61.741122 
L 96.138129 61.133353 
L 101.704748 61.133353 
L 101.704748 60.221698 
L 103.845755 60.221698 
L 103.845755 59.917813 
L 107.699568 59.917813 
L 107.699568 59.613928 
L 111.553381 59.613928 
L 111.553381 59.310043 
L 111.981583 59.310043 
L 111.981583 59.006158 
L 112.837986 59.006158 
L 112.837986 58.702273 
L 114.550791 58.702273 
L 114.550791 58.398388 
L 117.548201 58.398388 
L 117.548201 58.094504 
L 121.402014 58.094504 
L 121.402014 57.790619 
L 122.258417 57.790619 
L 122.258417 57.486734 
L 123.543022 57.486734 
L 123.543022 57.182849 
L 123.971223 57.182849 
L 123.971223 56.878964 
L 126.968633 56.878964 
L 126.968633 56.575079 
L 132.963453 56.575079 
L 132.963453 56.271194 
L 133.391655 56.271194 
L 133.391655 55.967309 
L 141.527482 55.967309 
L 141.527482 55.663424 
L 147.094101 55.663424 
L 147.094101 55.35954 
L 171.073381 55.35954 
L 171.073381 55.055655 
L 182.206619 55.055655 
L 182.206619 54.75177 
L 306.385036 54.75177 
L 306.385036 54.447885 
L 351.346187 54.447885 
L 351.346187 54.144 
L 414.72 54.144 
L 414.72 54.144 
" style="fill:none;stroke:#00bc00;stroke-linecap:square;stroke-width:2;"/>
   </g>
   <g id="line2d_15">
    <path clip-path="url(#p72551cb360)" d="M 57.6 307.584 
L 57.6 274.916374 
L 57.814101 274.916374 
L 57.814101 250.605583 
L 58.028201 250.605583 
L 58.028201 198.945151 
L 58.242302 198.945151 
L 58.242302 154.881842 
L 58.456403 154.881842 
L 58.456403 143.486158 
L 58.670504 143.486158 
L 58.670504 136.344863 
L 58.884604 136.344863 
L 58.884604 130.419108 
L 59.098705 130.419108 
L 59.098705 127.380259 
L 59.312806 127.380259 
L 59.312806 121.910331 
L 59.526906 121.910331 
L 59.526906 119.783137 
L 59.741007 119.783137 
L 59.741007 117.200115 
L 59.955108 117.200115 
L 59.955108 115.984576 
L 60.169209 115.984576 
L 60.169209 115.680691 
L 60.383309 115.680691 
L 60.383309 108.843281 
L 60.59741 108.843281 
L 60.59741 106.868029 
L 60.811511 106.868029 
L 60.811511 106.412201 
L 61.025612 106.412201 
L 61.025612 103.82918 
L 61.453813 103.82918 
L 61.453813 102.765583 
L 61.667914 102.765583 
L 61.667914 100.790331 
L 61.882014 100.790331 
L 61.882014 100.182561 
L 62.096115 100.182561 
L 62.096115 98.967022 
L 62.310216 98.967022 
L 62.310216 98.663137 
L 62.524317 98.663137 
L 62.524317 96.232058 
L 62.738417 96.232058 
L 62.738417 95.320403 
L 62.952518 95.320403 
L 62.952518 95.016518 
L 63.166619 95.016518 
L 63.166619 92.433496 
L 63.380719 92.433496 
L 63.380719 92.281554 
L 63.59482 92.281554 
L 63.59482 91.825727 
L 63.808921 91.825727 
L 63.808921 91.521842 
L 64.023022 91.521842 
L 64.023022 91.217957 
L 64.237122 91.217957 
L 64.237122 90.914072 
L 64.451223 90.914072 
L 64.451223 90.762129 
L 64.665324 90.762129 
L 64.665324 90.458245 
L 64.879424 90.458245 
L 64.879424 88.93882 
L 65.093525 88.93882 
L 65.093525 88.33105 
L 65.307626 88.33105 
L 65.307626 87.875223 
L 65.521727 87.875223 
L 65.521727 85.899971 
L 65.735827 85.899971 
L 65.735827 85.292201 
L 65.949928 85.292201 
L 65.949928 85.140259 
L 66.164029 85.140259 
L 66.164029 84.532489 
L 66.378129 84.532489 
L 66.378129 83.165007 
L 67.234532 83.165007 
L 67.234532 82.253353 
L 67.448633 82.253353 
L 67.448633 81.949468 
L 67.662734 81.949468 
L 67.662734 81.341698 
L 67.876835 81.341698 
L 67.876835 80.885871 
L 68.090935 80.885871 
L 68.090935 80.581986 
L 68.519137 80.581986 
L 68.519137 79.974216 
L 68.733237 79.974216 
L 68.733237 78.910619 
L 69.37554 78.910619 
L 69.37554 78.606734 
L 69.58964 78.606734 
L 69.58964 78.454791 
L 69.803741 78.454791 
L 69.803741 77.847022 
L 70.017842 77.847022 
L 70.017842 77.543137 
L 70.231942 77.543137 
L 70.231942 77.087309 
L 70.660144 77.087309 
L 70.660144 76.935367 
L 70.874245 76.935367 
L 70.874245 76.631482 
L 71.088345 76.631482 
L 71.088345 75.87177 
L 71.730647 75.87177 
L 71.730647 75.719827 
L 71.944748 75.719827 
L 71.944748 75.264 
L 72.58705 75.264 
L 72.58705 75.112058 
L 72.801151 75.112058 
L 72.801151 74.960115 
L 73.229353 74.960115 
L 73.229353 74.352345 
L 73.871655 74.352345 
L 73.871655 74.200403 
L 74.085755 74.200403 
L 74.085755 74.04846 
L 74.299856 74.04846 
L 74.299856 72.529036 
L 74.513957 72.529036 
L 74.513957 72.377094 
L 74.728058 72.377094 
L 74.728058 71.921266 
L 74.942158 71.921266 
L 74.942158 71.009612 
L 75.156259 71.009612 
L 75.156259 70.401842 
L 75.37036 70.401842 
L 75.37036 69.338245 
L 75.58446 69.338245 
L 75.58446 69.186302 
L 75.798561 69.186302 
L 75.798561 69.03436 
L 76.012662 69.03436 
L 76.012662 68.274647 
L 76.226763 68.274647 
L 76.226763 67.970763 
L 77.083165 67.362993 
L 77.511367 67.362993 
L 77.511367 67.21105 
L 78.581871 67.21105 
L 78.581871 67.059108 
L 78.795971 67.059108 
L 78.795971 66.907165 
L 79.010072 66.907165 
L 79.010072 66.755223 
L 80.508777 66.755223 
L 80.508777 66.603281 
L 81.36518 66.603281 
L 81.36518 66.451338 
L 82.649784 66.451338 
L 82.649784 66.299396 
L 83.292086 66.299396 
L 83.292086 66.147453 
L 83.506187 66.147453 
L 83.506187 65.995511 
L 85.647194 65.995511 
L 85.647194 65.843568 
L 85.861295 65.843568 
L 85.861295 65.691626 
L 86.075396 65.691626 
L 86.075396 65.235799 
L 86.931799 65.235799 
L 86.931799 64.931914 
L 87.145899 64.931914 
L 87.145899 64.779971 
L 87.36 64.779971 
L 87.36 64.324144 
L 88.002302 64.324144 
L 88.002302 64.172201 
L 88.216403 64.172201 
L 88.216403 63.716374 
L 89.286906 63.716374 
L 89.286906 63.564432 
L 89.715108 63.564432 
L 89.715108 63.412489 
L 89.929209 63.412489 
L 89.929209 63.108604 
L 90.571511 63.108604 
L 90.571511 62.956662 
L 90.999712 62.956662 
L 90.999712 62.804719 
L 91.856115 62.804719 
L 91.856115 62.652777 
L 92.070216 62.652777 
L 92.070216 62.500835 
L 92.498417 62.500835 
L 92.498417 62.045007 
L 93.997122 62.045007 
L 93.997122 61.893065 
L 94.853525 61.893065 
L 94.853525 61.58918 
L 95.281727 61.58918 
L 95.281727 61.437237 
L 95.924029 61.437237 
L 95.924029 61.285295 
L 96.780432 61.285295 
L 96.780432 61.133353 
L 97.208633 61.133353 
L 97.208633 60.98141 
L 98.493237 60.98141 
L 98.493237 60.37364 
L 100.420144 60.37364 
L 100.420144 60.221698 
L 101.276547 60.221698 
L 101.276547 60.069755 
L 101.490647 60.069755 
L 101.490647 59.917813 
L 102.34705 59.917813 
L 102.34705 59.765871 
L 105.13036 59.765871 
L 105.13036 59.613928 
L 105.772662 59.613928 
L 105.772662 59.461986 
L 106.629065 59.461986 
L 106.629065 59.310043 
L 108.770072 59.310043 
L 108.770072 59.158101 
L 109.198273 59.158101 
L 109.198273 59.006158 
L 109.412374 59.006158 
L 109.412374 58.854216 
L 109.840576 58.854216 
L 109.840576 58.702273 
L 110.268777 58.702273 
L 110.268777 58.550331 
L 110.696978 58.550331 
L 110.696978 58.398388 
L 111.339281 58.398388 
L 111.339281 58.246446 
L 111.553381 58.246446 
L 111.553381 58.094504 
L 115.193094 58.094504 
L 115.193094 57.942561 
L 115.621295 57.942561 
L 115.621295 57.790619 
L 116.905899 57.790619 
L 116.905899 57.638676 
L 120.331511 57.638676 
L 120.331511 57.486734 
L 120.759712 57.486734 
L 120.759712 57.334791 
L 122.472518 57.334791 
L 122.472518 57.182849 
L 123.328921 57.182849 
L 123.328921 57.030906 
L 126.11223 57.030906 
L 126.11223 56.878964 
L 127.610935 56.878964 
L 127.610935 56.575079 
L 131.250647 56.575079 
L 131.250647 56.423137 
L 131.89295 56.423137 
L 131.89295 56.271194 
L 134.676259 56.271194 
L 134.676259 56.119252 
L 144.310791 56.119252 
L 144.310791 55.967309 
L 144.738993 55.967309 
L 144.738993 55.815367 
L 146.451799 55.815367 
L 146.451799 55.663424 
L 150.091511 55.663424 
L 150.091511 55.511482 
L 153.088921 55.511482 
L 153.088921 55.35954 
L 160.796547 55.35954 
L 160.796547 55.207597 
L 165.078561 55.207597 
L 165.078561 55.055655 
L 173.428489 55.055655 
L 173.428489 54.903712 
L 183.491223 54.903712 
L 183.491223 54.75177 
L 199.548777 54.75177 
L 199.548777 54.599827 
L 261.637986 54.599827 
L 261.637986 54.447885 
L 334.43223 54.447885 
L 334.43223 54.295942 
L 368.688345 54.295942 
L 368.688345 54.144 
L 414.72 54.144 
L 414.72 54.144 
" style="fill:none;stroke:#ff1493;stroke-dasharray:4,6.6;stroke-dashoffset:0;stroke-width:4;"/>
   </g>
   <g id="line2d_16">
    <path clip-path="url(#p72551cb360)" d="M 57.6 252.884719 
L 58.028201 187.09364 
L 58.456403 139.535655 
L 58.884604 133.913784 
L 59.312806 120.694791 
L 59.741007 116.744288 
L 60.169209 112.945727 
L 60.59741 107.627741 
L 61.025612 103.373353 
L 61.453813 102.309755 
L 61.882014 98.055367 
L 62.310216 96.839827 
L 62.738417 94.712633 
L 63.166619 93.193209 
L 63.59482 91.825727 
L 64.023022 91.066014 
L 64.451223 90.15436 
L 64.879424 89.242705 
L 65.307626 86.659683 
L 65.735827 84.836374 
L 66.164029 83.924719 
L 66.59223 83.165007 
L 67.020432 82.861122 
L 67.448633 80.733928 
L 67.876835 80.430043 
L 68.305036 79.670331 
L 68.733237 78.606734 
L 69.161439 77.847022 
L 69.58964 77.391194 
L 70.017842 76.783424 
L 70.446043 76.631482 
L 70.874245 76.023712 
L 71.302446 75.567885 
L 71.730647 75.264 
L 72.158849 74.352345 
L 72.58705 73.744576 
L 73.015252 72.984863 
L 73.443453 72.832921 
L 73.871655 72.377094 
L 74.299856 71.921266 
L 75.156259 70.249899 
L 76.012662 70.097957 
L 76.440863 69.338245 
L 76.869065 67.21105 
L 77.297266 67.21105 
L 79.010072 67.21105 
L 80.722878 66.907165 
L 81.151079 66.603281 
L 82.435683 66.451338 
L 82.863885 66.299396 
L 83.292086 66.147453 
L 83.720288 65.843568 
L 84.148489 65.691626 
L 84.576691 65.387741 
L 85.433094 64.779971 
L 86.289496 64.628029 
L 86.717698 64.324144 
L 87.145899 64.172201 
L 87.574101 64.020259 
L 88.002302 63.868317 
L 88.430504 63.716374 
L 88.858705 63.412489 
L 89.286906 63.260547 
L 89.715108 63.108604 
L 90.143309 62.804719 
L 90.571511 62.500835 
L 91.427914 62.19695 
L 92.284317 62.045007 
L 92.712518 61.893065 
L 93.140719 61.741122 
L 93.997122 61.58918 
L 94.425324 61.437237 
L 94.853525 61.285295 
L 95.281727 61.133353 
L 96.138129 60.829468 
L 97.422734 60.677525 
L 97.850935 60.525583 
L 99.13554 60.37364 
L 101.704748 59.917813 
L 102.561151 59.765871 
L 103.845755 59.613928 
L 104.702158 59.461986 
L 106.414964 59.310043 
L 106.843165 59.158101 
L 107.699568 58.854216 
L 108.12777 58.702273 
L 111.553381 58.550331 
L 111.981583 58.398388 
L 112.837986 58.246446 
L 113.266187 58.094504 
L 114.550791 57.942561 
L 115.407194 57.790619 
L 117.548201 57.638676 
L 121.402014 57.486734 
L 122.258417 57.334791 
L 123.543022 57.182849 
L 123.971223 57.030906 
L 126.968633 56.575079 
L 132.963453 56.271194 
L 133.391655 56.119252 
L 141.527482 55.967309 
L 147.094101 55.815367 
L 147.522302 55.663424 
L 150.091511 55.511482 
L 155.658129 55.35954 
L 168.932374 55.207597 
L 171.073381 55.055655 
L 173.64259 54.903712 
L 182.206619 54.75177 
L 183.491223 54.599827 
L 306.385036 54.447885 
L 323.941295 54.295942 
L 351.346187 54.144 
L 414.72 54.144 
" style="fill:none;stroke:#000080;stroke-dasharray:4,6.6;stroke-dashoffset:0;stroke-width:4;"/>
   </g>
   <g id="line2d_17">
    <path clip-path="url(#p72551cb360)" d="M 57.6 307.584 
L 414.72 54.144 
" style="fill:none;stroke:#000000;stroke-dasharray:7.4,3.2;stroke-dashoffset:0;stroke-width:2;"/>
   </g>
   <g id="patch_3">
    <path d="M 57.6 307.584 
L 57.6 41.472 
" style="fill:none;stroke:#000000;stroke-linecap:square;stroke-linejoin:miter;stroke-width:0.8;"/>
   </g>
   <g id="patch_4">
    <path d="M 414.72 307.584 
L 414.72 41.472 
" style="fill:none;stroke:#000000;stroke-linecap:square;stroke-linejoin:miter;stroke-width:0.8;"/>
   </g>
   <g id="patch_5">
    <path d="M 57.6 307.584 
L 414.72 307.584 
" style="fill:none;stroke:#000000;stroke-linecap:square;stroke-linejoin:miter;stroke-width:0.8;"/>
   </g>
   <g id="patch_6">
    <path d="M 57.6 41.472 
L 414.72 41.472 
" style="fill:none;stroke:#000000;stroke-linecap:square;stroke-linejoin:miter;stroke-width:0.8;"/>
   </g>
   <g id="text_15">
    <!-- ROC Curves -->
    <g transform="translate(178.854 35.472)scale(0.192 -0.192)">
     <defs>
      <path d="M 2522 4238 
Q 1834 4238 1429 3725 
Q 1025 3213 1025 2328 
Q 1025 1447 1429 934 
Q 1834 422 2522 422 
Q 3209 422 3611 934 
Q 4013 1447 4013 2328 
Q 4013 3213 3611 3725 
Q 3209 4238 2522 4238 
z
M 2522 4750 
Q 3503 4750 4090 4092 
Q 4678 3434 4678 2328 
Q 4678 1225 4090 567 
Q 3503 -91 2522 -91 
Q 1538 -91 948 565 
Q 359 1222 359 2328 
Q 359 3434 948 4092 
Q 1538 4750 2522 4750 
z
" id="DejaVuSans-4f" transform="scale(0.015625)"/>
      <path d="M 4122 4306 
L 4122 3641 
Q 3803 3938 3442 4084 
Q 3081 4231 2675 4231 
Q 1875 4231 1450 3742 
Q 1025 3253 1025 2328 
Q 1025 1406 1450 917 
Q 1875 428 2675 428 
Q 3081 428 3442 575 
Q 3803 722 4122 1019 
L 4122 359 
Q 3791 134 3420 21 
Q 3050 -91 2638 -91 
Q 1578 -91 968 557 
Q 359 1206 359 2328 
Q 359 3453 968 4101 
Q 1578 4750 2638 4750 
Q 3056 4750 3426 4639 
Q 3797 4528 4122 4306 
z
" id="DejaVuSans-43" transform="scale(0.015625)"/>
     </defs>
     <use xlink:href="#DejaVuSans-52"/>
     <use x="69.482422" xlink:href="#DejaVuSans-4f"/>
     <use x="148.193359" xlink:href="#DejaVuSans-43"/>
     <use x="218.017578" xlink:href="#DejaVuSans-20"/>
     <use x="249.804688" xlink:href="#DejaVuSans-43"/>
     <use x="319.628906" xlink:href="#DejaVuSans-75"/>
     <use x="383.007812" xlink:href="#DejaVuSans-72"/>
     <use x="424.121094" xlink:href="#DejaVuSans-76"/>
     <use x="483.300781" xlink:href="#DejaVuSans-65"/>
     <use x="544.824219" xlink:href="#DejaVuSans-73"/>
    </g>
   </g>
   <g id="legend_1">
    <g id="patch_7">
     <path d="M 28.2175 299.584 
L 403.52 299.584 
Q 406.72 299.584 406.72 296.384 
L 406.72 204.044 
Q 406.72 200.844 403.52 200.844 
L 28.2175 200.844 
Q 25.0175 200.844 25.0175 204.044 
L 25.0175 296.384 
Q 25.0175 299.584 28.2175 299.584 
z
" style="fill:#ffffff;opacity:0.8;stroke:#cccccc;stroke-linejoin:miter;"/>
    </g>
    <g id="line2d_18">
     <path d="M 31.4175 213.8015 
L 63.4175 213.8015 
" style="fill:none;stroke:#000000;stroke-linecap:square;stroke-width:2;"/>
    </g>
    <g id="line2d_19"/>
    <g id="text_16">
     <!-- ROC curve of class -1 (area = 0.99) -->
     <g transform="translate(76.2175 219.4015)scale(0.16 -0.16)">
      <defs>
       <path d="M 3122 3366 
L 3122 2828 
Q 2878 2963 2633 3030 
Q 2388 3097 2138 3097 
Q 1578 3097 1268 2742 
Q 959 2388 959 1747 
Q 959 1106 1268 751 
Q 1578 397 2138 397 
Q 2388 397 2633 464 
Q 2878 531 3122 666 
L 3122 134 
Q 2881 22 2623 -34 
Q 2366 -91 2075 -91 
Q 1284 -91 818 406 
Q 353 903 353 1747 
Q 353 2603 823 3093 
Q 1294 3584 2113 3584 
Q 2378 3584 2631 3529 
Q 2884 3475 3122 3366 
z
" id="DejaVuSans-63" transform="scale(0.015625)"/>
       <path d="M 2375 4863 
L 2375 4384 
L 1825 4384 
Q 1516 4384 1395 4259 
Q 1275 4134 1275 3809 
L 1275 3500 
L 2222 3500 
L 2222 3053 
L 1275 3053 
L 1275 0 
L 697 0 
L 697 3053 
L 147 3053 
L 147 3500 
L 697 3500 
L 697 3744 
Q 697 4328 969 4595 
Q 1241 4863 1831 4863 
L 2375 4863 
z
" id="DejaVuSans-66" transform="scale(0.015625)"/>
       <path d="M 313 2009 
L 1997 2009 
L 1997 1497 
L 313 1497 
L 313 2009 
z
" id="DejaVuSans-2d" transform="scale(0.015625)"/>
       <path d="M 1984 4856 
Q 1566 4138 1362 3434 
Q 1159 2731 1159 2009 
Q 1159 1288 1364 580 
Q 1569 -128 1984 -844 
L 1484 -844 
Q 1016 -109 783 600 
Q 550 1309 550 2009 
Q 550 2706 781 3412 
Q 1013 4119 1484 4856 
L 1984 4856 
z
" id="DejaVuSans-28" transform="scale(0.015625)"/>
       <path d="M 678 2906 
L 4684 2906 
L 4684 2381 
L 678 2381 
L 678 2906 
z
M 678 1631 
L 4684 1631 
L 4684 1100 
L 678 1100 
L 678 1631 
z
" id="DejaVuSans-3d" transform="scale(0.015625)"/>
       <path d="M 703 97 
L 703 672 
Q 941 559 1184 500 
Q 1428 441 1663 441 
Q 2288 441 2617 861 
Q 2947 1281 2994 2138 
Q 2813 1869 2534 1725 
Q 2256 1581 1919 1581 
Q 1219 1581 811 2004 
Q 403 2428 403 3163 
Q 403 3881 828 4315 
Q 1253 4750 1959 4750 
Q 2769 4750 3195 4129 
Q 3622 3509 3622 2328 
Q 3622 1225 3098 567 
Q 2575 -91 1691 -91 
Q 1453 -91 1209 -44 
Q 966 3 703 97 
z
M 1959 2075 
Q 2384 2075 2632 2365 
Q 2881 2656 2881 3163 
Q 2881 3666 2632 3958 
Q 2384 4250 1959 4250 
Q 1534 4250 1286 3958 
Q 1038 3666 1038 3163 
Q 1038 2656 1286 2365 
Q 1534 2075 1959 2075 
z
" id="DejaVuSans-39" transform="scale(0.015625)"/>
       <path d="M 513 4856 
L 1013 4856 
Q 1481 4119 1714 3412 
Q 1947 2706 1947 2009 
Q 1947 1309 1714 600 
Q 1481 -109 1013 -844 
L 513 -844 
Q 928 -128 1133 580 
Q 1338 1288 1338 2009 
Q 1338 2731 1133 3434 
Q 928 4138 513 4856 
z
" id="DejaVuSans-29" transform="scale(0.015625)"/>
      </defs>
      <use xlink:href="#DejaVuSans-52"/>
      <use x="69.482422" xlink:href="#DejaVuSans-4f"/>
      <use x="148.193359" xlink:href="#DejaVuSans-43"/>
      <use x="218.017578" xlink:href="#DejaVuSans-20"/>
      <use x="249.804688" xlink:href="#DejaVuSans-63"/>
      <use x="304.785156" xlink:href="#DejaVuSans-75"/>
      <use x="368.164062" xlink:href="#DejaVuSans-72"/>
      <use x="409.277344" xlink:href="#DejaVuSans-76"/>
      <use x="468.457031" xlink:href="#DejaVuSans-65"/>
      <use x="529.980469" xlink:href="#DejaVuSans-20"/>
      <use x="561.767578" xlink:href="#DejaVuSans-6f"/>
      <use x="622.949219" xlink:href="#DejaVuSans-66"/>
      <use x="658.154297" xlink:href="#DejaVuSans-20"/>
      <use x="689.941406" xlink:href="#DejaVuSans-63"/>
      <use x="744.921875" xlink:href="#DejaVuSans-6c"/>
      <use x="772.705078" xlink:href="#DejaVuSans-61"/>
      <use x="833.984375" xlink:href="#DejaVuSans-73"/>
      <use x="886.083984" xlink:href="#DejaVuSans-73"/>
      <use x="938.183594" xlink:href="#DejaVuSans-20"/>
      <use x="969.970703" xlink:href="#DejaVuSans-2d"/>
      <use x="1006.054688" xlink:href="#DejaVuSans-31"/>
      <use x="1069.677734" xlink:href="#DejaVuSans-20"/>
      <use x="1101.464844" xlink:href="#DejaVuSans-28"/>
      <use x="1140.478516" xlink:href="#DejaVuSans-61"/>
      <use x="1201.757812" xlink:href="#DejaVuSans-72"/>
      <use x="1240.621094" xlink:href="#DejaVuSans-65"/>
      <use x="1302.144531" xlink:href="#DejaVuSans-61"/>
      <use x="1363.423828" xlink:href="#DejaVuSans-20"/>
      <use x="1395.210938" xlink:href="#DejaVuSans-3d"/>
      <use x="1479" xlink:href="#DejaVuSans-20"/>
      <use x="1510.787109" xlink:href="#DejaVuSans-30"/>
      <use x="1574.410156" xlink:href="#DejaVuSans-2e"/>
      <use x="1606.197266" xlink:href="#DejaVuSans-39"/>
      <use x="1669.820312" xlink:href="#DejaVuSans-39"/>
      <use x="1733.443359" xlink:href="#DejaVuSans-29"/>
     </g>
    </g>
    <g id="line2d_20">
     <path d="M 31.4175 237.2865 
L 63.4175 237.2865 
" style="fill:none;stroke:#00bc00;stroke-linecap:square;stroke-width:2;"/>
    </g>
    <g id="line2d_21"/>
    <g id="text_17">
     <!-- ROC curve of class 1 (area = 0.99) -->
     <g transform="translate(76.2175 242.8865)scale(0.16 -0.16)">
      <use xlink:href="#DejaVuSans-52"/>
      <use x="69.482422" xlink:href="#DejaVuSans-4f"/>
      <use x="148.193359" xlink:href="#DejaVuSans-43"/>
      <use x="218.017578" xlink:href="#DejaVuSans-20"/>
      <use x="249.804688" xlink:href="#DejaVuSans-63"/>
      <use x="304.785156" xlink:href="#DejaVuSans-75"/>
      <use x="368.164062" xlink:href="#DejaVuSans-72"/>
      <use x="409.277344" xlink:href="#DejaVuSans-76"/>
      <use x="468.457031" xlink:href="#DejaVuSans-65"/>
      <use x="529.980469" xlink:href="#DejaVuSans-20"/>
      <use x="561.767578" xlink:href="#DejaVuSans-6f"/>
      <use x="622.949219" xlink:href="#DejaVuSans-66"/>
      <use x="658.154297" xlink:href="#DejaVuSans-20"/>
      <use x="689.941406" xlink:href="#DejaVuSans-63"/>
      <use x="744.921875" xlink:href="#DejaVuSans-6c"/>
      <use x="772.705078" xlink:href="#DejaVuSans-61"/>
      <use x="833.984375" xlink:href="#DejaVuSans-73"/>
      <use x="886.083984" xlink:href="#DejaVuSans-73"/>
      <use x="938.183594" xlink:href="#DejaVuSans-20"/>
      <use x="969.970703" xlink:href="#DejaVuSans-31"/>
      <use x="1033.59375" xlink:href="#DejaVuSans-20"/>
      <use x="1065.380859" xlink:href="#DejaVuSans-28"/>
      <use x="1104.394531" xlink:href="#DejaVuSans-61"/>
      <use x="1165.673828" xlink:href="#DejaVuSans-72"/>
      <use x="1204.537109" xlink:href="#DejaVuSans-65"/>
      <use x="1266.060547" xlink:href="#DejaVuSans-61"/>
      <use x="1327.339844" xlink:href="#DejaVuSans-20"/>
      <use x="1359.126953" xlink:href="#DejaVuSans-3d"/>
      <use x="1442.916016" xlink:href="#DejaVuSans-20"/>
      <use x="1474.703125" xlink:href="#DejaVuSans-30"/>
      <use x="1538.326172" xlink:href="#DejaVuSans-2e"/>
      <use x="1570.113281" xlink:href="#DejaVuSans-39"/>
      <use x="1633.736328" xlink:href="#DejaVuSans-39"/>
      <use x="1697.359375" xlink:href="#DejaVuSans-29"/>
     </g>
    </g>
    <g id="line2d_22">
     <path d="M 31.4175 260.7715 
L 63.4175 260.7715 
" style="fill:none;stroke:#ff1493;stroke-dasharray:4,6.6;stroke-dashoffset:0;stroke-width:4;"/>
    </g>
    <g id="line2d_23"/>
    <g id="text_18">
     <!-- micro-average ROC curve (area = 0.99) -->
     <g transform="translate(76.2175 266.3715)scale(0.16 -0.16)">
      <defs>
       <path d="M 3328 2828 
Q 3544 3216 3844 3400 
Q 4144 3584 4550 3584 
Q 5097 3584 5394 3201 
Q 5691 2819 5691 2113 
L 5691 0 
L 5113 0 
L 5113 2094 
Q 5113 2597 4934 2840 
Q 4756 3084 4391 3084 
Q 3944 3084 3684 2787 
Q 3425 2491 3425 1978 
L 3425 0 
L 2847 0 
L 2847 2094 
Q 2847 2600 2669 2842 
Q 2491 3084 2119 3084 
Q 1678 3084 1418 2786 
Q 1159 2488 1159 1978 
L 1159 0 
L 581 0 
L 581 3500 
L 1159 3500 
L 1159 2956 
Q 1356 3278 1631 3431 
Q 1906 3584 2284 3584 
Q 2666 3584 2933 3390 
Q 3200 3197 3328 2828 
z
" id="DejaVuSans-6d" transform="scale(0.015625)"/>
       <path d="M 2906 1791 
Q 2906 2416 2648 2759 
Q 2391 3103 1925 3103 
Q 1463 3103 1205 2759 
Q 947 2416 947 1791 
Q 947 1169 1205 825 
Q 1463 481 1925 481 
Q 2391 481 2648 825 
Q 2906 1169 2906 1791 
z
M 3481 434 
Q 3481 -459 3084 -895 
Q 2688 -1331 1869 -1331 
Q 1566 -1331 1297 -1286 
Q 1028 -1241 775 -1147 
L 775 -588 
Q 1028 -725 1275 -790 
Q 1522 -856 1778 -856 
Q 2344 -856 2625 -561 
Q 2906 -266 2906 331 
L 2906 616 
Q 2728 306 2450 153 
Q 2172 0 1784 0 
Q 1141 0 747 490 
Q 353 981 353 1791 
Q 353 2603 747 3093 
Q 1141 3584 1784 3584 
Q 2172 3584 2450 3431 
Q 2728 3278 2906 2969 
L 2906 3500 
L 3481 3500 
L 3481 434 
z
" id="DejaVuSans-67" transform="scale(0.015625)"/>
      </defs>
      <use xlink:href="#DejaVuSans-6d"/>
      <use x="97.412109" xlink:href="#DejaVuSans-69"/>
      <use x="125.195312" xlink:href="#DejaVuSans-63"/>
      <use x="180.175781" xlink:href="#DejaVuSans-72"/>
      <use x="219.039062" xlink:href="#DejaVuSans-6f"/>
      <use x="282.095703" xlink:href="#DejaVuSans-2d"/>
      <use x="318.179688" xlink:href="#DejaVuSans-61"/>
      <use x="379.458984" xlink:href="#DejaVuSans-76"/>
      <use x="438.638672" xlink:href="#DejaVuSans-65"/>
      <use x="500.162109" xlink:href="#DejaVuSans-72"/>
      <use x="541.275391" xlink:href="#DejaVuSans-61"/>
      <use x="602.554688" xlink:href="#DejaVuSans-67"/>
      <use x="666.03125" xlink:href="#DejaVuSans-65"/>
      <use x="727.554688" xlink:href="#DejaVuSans-20"/>
      <use x="759.341797" xlink:href="#DejaVuSans-52"/>
      <use x="828.824219" xlink:href="#DejaVuSans-4f"/>
      <use x="907.535156" xlink:href="#DejaVuSans-43"/>
      <use x="977.359375" xlink:href="#DejaVuSans-20"/>
      <use x="1009.146484" xlink:href="#DejaVuSans-63"/>
      <use x="1064.126953" xlink:href="#DejaVuSans-75"/>
      <use x="1127.505859" xlink:href="#DejaVuSans-72"/>
      <use x="1168.619141" xlink:href="#DejaVuSans-76"/>
      <use x="1227.798828" xlink:href="#DejaVuSans-65"/>
      <use x="1289.322266" xlink:href="#DejaVuSans-20"/>
      <use x="1321.109375" xlink:href="#DejaVuSans-28"/>
      <use x="1360.123047" xlink:href="#DejaVuSans-61"/>
      <use x="1421.402344" xlink:href="#DejaVuSans-72"/>
      <use x="1460.265625" xlink:href="#DejaVuSans-65"/>
      <use x="1521.789062" xlink:href="#DejaVuSans-61"/>
      <use x="1583.068359" xlink:href="#DejaVuSans-20"/>
      <use x="1614.855469" xlink:href="#DejaVuSans-3d"/>
      <use x="1698.644531" xlink:href="#DejaVuSans-20"/>
      <use x="1730.431641" xlink:href="#DejaVuSans-30"/>
      <use x="1794.054688" xlink:href="#DejaVuSans-2e"/>
      <use x="1825.841797" xlink:href="#DejaVuSans-39"/>
      <use x="1889.464844" xlink:href="#DejaVuSans-39"/>
      <use x="1953.087891" xlink:href="#DejaVuSans-29"/>
     </g>
    </g>
    <g id="line2d_24">
     <path d="M 31.4175 284.2565 
L 63.4175 284.2565 
" style="fill:none;stroke:#000080;stroke-dasharray:4,6.6;stroke-dashoffset:0;stroke-width:4;"/>
    </g>
    <g id="line2d_25"/>
    <g id="text_19">
     <!-- macro-average ROC curve (area = 0.99) -->
     <g transform="translate(76.2175 289.8565)scale(0.16 -0.16)">
      <use xlink:href="#DejaVuSans-6d"/>
      <use x="97.412109" xlink:href="#DejaVuSans-61"/>
      <use x="158.691406" xlink:href="#DejaVuSans-63"/>
      <use x="213.671875" xlink:href="#DejaVuSans-72"/>
      <use x="252.535156" xlink:href="#DejaVuSans-6f"/>
      <use x="315.591797" xlink:href="#DejaVuSans-2d"/>
      <use x="351.675781" xlink:href="#DejaVuSans-61"/>
      <use x="412.955078" xlink:href="#DejaVuSans-76"/>
      <use x="472.134766" xlink:href="#DejaVuSans-65"/>
      <use x="533.658203" xlink:href="#DejaVuSans-72"/>
      <use x="574.771484" xlink:href="#DejaVuSans-61"/>
      <use x="636.050781" xlink:href="#DejaVuSans-67"/>
      <use x="699.527344" xlink:href="#DejaVuSans-65"/>
      <use x="761.050781" xlink:href="#DejaVuSans-20"/>
      <use x="792.837891" xlink:href="#DejaVuSans-52"/>
      <use x="862.320312" xlink:href="#DejaVuSans-4f"/>
      <use x="941.03125" xlink:href="#DejaVuSans-43"/>
      <use x="1010.855469" xlink:href="#DejaVuSans-20"/>
      <use x="1042.642578" xlink:href="#DejaVuSans-63"/>
      <use x="1097.623047" xlink:href="#DejaVuSans-75"/>
      <use x="1161.001953" xlink:href="#DejaVuSans-72"/>
      <use x="1202.115234" xlink:href="#DejaVuSans-76"/>
      <use x="1261.294922" xlink:href="#DejaVuSans-65"/>
      <use x="1322.818359" xlink:href="#DejaVuSans-20"/>
      <use x="1354.605469" xlink:href="#DejaVuSans-28"/>
      <use x="1393.619141" xlink:href="#DejaVuSans-61"/>
      <use x="1454.898438" xlink:href="#DejaVuSans-72"/>
      <use x="1493.761719" xlink:href="#DejaVuSans-65"/>
      <use x="1555.285156" xlink:href="#DejaVuSans-61"/>
      <use x="1616.564453" xlink:href="#DejaVuSans-20"/>
      <use x="1648.351562" xlink:href="#DejaVuSans-3d"/>
      <use x="1732.140625" xlink:href="#DejaVuSans-20"/>
      <use x="1763.927734" xlink:href="#DejaVuSans-30"/>
      <use x="1827.550781" xlink:href="#DejaVuSans-2e"/>
      <use x="1859.337891" xlink:href="#DejaVuSans-39"/>
      <use x="1922.960938" xlink:href="#DejaVuSans-39"/>
      <use x="1986.583984" xlink:href="#DejaVuSans-29"/>
     </g>
    </g>
   </g>
  </g>
 </g>
 <defs>
  <clipPath id="p72551cb360">
   <rect height="266.112" width="357.12" x="57.6" y="41.472"/>
  </clipPath>
 </defs>
</svg>
