<?xml version="1.0" encoding="utf-8" standalone="no"?>
<!DOCTYPE svg PUBLIC "-//W3C//DTD SVG 1.1//EN"
  "http://www.w3.org/Graphics/SVG/1.1/DTD/svg11.dtd">
<svg height="345.6pt" version="1.1" viewBox="0 0 460.8 345.6" width="460.8pt" xmlns="http://www.w3.org/2000/svg" xmlns:xlink="http://www.w3.org/1999/xlink">
 <metadata>
  <rdf:RDF xmlns:cc="http://creativecommons.org/ns#" xmlns:dc="http://purl.org/dc/elements/1.1/" xmlns:rdf="http://www.w3.org/1999/02/22-rdf-syntax-ns#">
   <cc:Work>
    <dc:type rdf:resource="http://purl.org/dc/dcmitype/StillImage"/>
    <dc:date>2022-01-03T01:27:34.615066</dc:date>
    <dc:format>image/svg+xml</dc:format>
    <dc:creator>
     <cc:Agent>
      <dc:title>Matplotlib v3.4.3, https://matplotlib.org/</dc:title>
     </cc:Agent>
    </dc:creator>
   </cc:Work>
  </rdf:RDF>
 </metadata>
 <defs>
  <style type="text/css">*{stroke-linecap:butt;stroke-linejoin:round;}</style>
 </defs>
 <g id="figure_1">
  <g id="patch_1">
   <path d="M 0 345.6 
L 460.8 345.6 
L 460.8 0 
L 0 0 
z
" style="fill:#ffffff;"/>
  </g>
  <g id="axes_1">
   <g id="patch_2">
    <path d="M 57.6 307.584 
L 414.72 307.584 
L 414.72 41.472 
L 57.6 41.472 
z
" style="fill:#ffffff;"/>
   </g>
   <g id="matplotlib.axis_1">
    <g id="xtick_1">
     <g id="line2d_1">
      <defs>
       <path d="M 0 0 
L 0 3.5 
" id="mdbed60d632" style="stroke:#000000;stroke-width:0.8;"/>
      </defs>
      <g>
       <use style="stroke:#000000;stroke-width:0.8;" x="57.6" xlink:href="#mdbed60d632" y="307.584"/>
      </g>
     </g>
     <g id="text_1">
      <!-- 0.0 -->
      <g transform="translate(44.8775 326.7415)scale(0.16 -0.16)">
       <defs>
        <path d="M 2034 4250 
Q 1547 4250 1301 3770 
Q 1056 3291 1056 2328 
Q 1056 1369 1301 889 
Q 1547 409 2034 409 
Q 2525 409 2770 889 
Q 3016 1369 3016 2328 
Q 3016 3291 2770 3770 
Q 2525 4250 2034 4250 
z
M 2034 4750 
Q 2819 4750 3233 4129 
Q 3647 3509 3647 2328 
Q 3647 1150 3233 529 
Q 2819 -91 2034 -91 
Q 1250 -91 836 529 
Q 422 1150 422 2328 
Q 422 3509 836 4129 
Q 1250 4750 2034 4750 
z
" id="DejaVuSans-30" transform="scale(0.015625)"/>
        <path d="M 684 794 
L 1344 794 
L 1344 0 
L 684 0 
L 684 794 
z
" id="DejaVuSans-2e" transform="scale(0.015625)"/>
       </defs>
       <use xlink:href="#DejaVuSans-30"/>
       <use x="63.623047" xlink:href="#DejaVuSans-2e"/>
       <use x="95.410156" xlink:href="#DejaVuSans-30"/>
      </g>
     </g>
    </g>
    <g id="xtick_2">
     <g id="line2d_2">
      <g>
       <use style="stroke:#000000;stroke-width:0.8;" x="129.024" xlink:href="#mdbed60d632" y="307.584"/>
      </g>
     </g>
     <g id="text_2">
      <!-- 0.2 -->
      <g transform="translate(116.3015 326.7415)scale(0.16 -0.16)">
       <defs>
        <path d="M 1228 531 
L 3431 531 
L 3431 0 
L 469 0 
L 469 531 
Q 828 903 1448 1529 
Q 2069 2156 2228 2338 
Q 2531 2678 2651 2914 
Q 2772 3150 2772 3378 
Q 2772 3750 2511 3984 
Q 2250 4219 1831 4219 
Q 1534 4219 1204 4116 
Q 875 4013 500 3803 
L 500 4441 
Q 881 4594 1212 4672 
Q 1544 4750 1819 4750 
Q 2544 4750 2975 4387 
Q 3406 4025 3406 3419 
Q 3406 3131 3298 2873 
Q 3191 2616 2906 2266 
Q 2828 2175 2409 1742 
Q 1991 1309 1228 531 
z
" id="DejaVuSans-32" transform="scale(0.015625)"/>
       </defs>
       <use xlink:href="#DejaVuSans-30"/>
       <use x="63.623047" xlink:href="#DejaVuSans-2e"/>
       <use x="95.410156" xlink:href="#DejaVuSans-32"/>
      </g>
     </g>
    </g>
    <g id="xtick_3">
     <g id="line2d_3">
      <g>
       <use style="stroke:#000000;stroke-width:0.8;" x="200.448" xlink:href="#mdbed60d632" y="307.584"/>
      </g>
     </g>
     <g id="text_3">
      <!-- 0.4 -->
      <g transform="translate(187.7255 326.7415)scale(0.16 -0.16)">
       <defs>
        <path d="M 2419 4116 
L 825 1625 
L 2419 1625 
L 2419 4116 
z
M 2253 4666 
L 3047 4666 
L 3047 1625 
L 3713 1625 
L 3713 1100 
L 3047 1100 
L 3047 0 
L 2419 0 
L 2419 1100 
L 313 1100 
L 313 1709 
L 2253 4666 
z
" id="DejaVuSans-34" transform="scale(0.015625)"/>
       </defs>
       <use xlink:href="#DejaVuSans-30"/>
       <use x="63.623047" xlink:href="#DejaVuSans-2e"/>
       <use x="95.410156" xlink:href="#DejaVuSans-34"/>
      </g>
     </g>
    </g>
    <g id="xtick_4">
     <g id="line2d_4">
      <g>
       <use style="stroke:#000000;stroke-width:0.8;" x="271.872" xlink:href="#mdbed60d632" y="307.584"/>
      </g>
     </g>
     <g id="text_4">
      <!-- 0.6 -->
      <g transform="translate(259.1495 326.7415)scale(0.16 -0.16)">
       <defs>
        <path d="M 2113 2584 
Q 1688 2584 1439 2293 
Q 1191 2003 1191 1497 
Q 1191 994 1439 701 
Q 1688 409 2113 409 
Q 2538 409 2786 701 
Q 3034 994 3034 1497 
Q 3034 2003 2786 2293 
Q 2538 2584 2113 2584 
z
M 3366 4563 
L 3366 3988 
Q 3128 4100 2886 4159 
Q 2644 4219 2406 4219 
Q 1781 4219 1451 3797 
Q 1122 3375 1075 2522 
Q 1259 2794 1537 2939 
Q 1816 3084 2150 3084 
Q 2853 3084 3261 2657 
Q 3669 2231 3669 1497 
Q 3669 778 3244 343 
Q 2819 -91 2113 -91 
Q 1303 -91 875 529 
Q 447 1150 447 2328 
Q 447 3434 972 4092 
Q 1497 4750 2381 4750 
Q 2619 4750 2861 4703 
Q 3103 4656 3366 4563 
z
" id="DejaVuSans-36" transform="scale(0.015625)"/>
       </defs>
       <use xlink:href="#DejaVuSans-30"/>
       <use x="63.623047" xlink:href="#DejaVuSans-2e"/>
       <use x="95.410156" xlink:href="#DejaVuSans-36"/>
      </g>
     </g>
    </g>
    <g id="xtick_5">
     <g id="line2d_5">
      <g>
       <use style="stroke:#000000;stroke-width:0.8;" x="343.296" xlink:href="#mdbed60d632" y="307.584"/>
      </g>
     </g>
     <g id="text_5">
      <!-- 0.8 -->
      <g transform="translate(330.5735 326.7415)scale(0.16 -0.16)">
       <defs>
        <path d="M 2034 2216 
Q 1584 2216 1326 1975 
Q 1069 1734 1069 1313 
Q 1069 891 1326 650 
Q 1584 409 2034 409 
Q 2484 409 2743 651 
Q 3003 894 3003 1313 
Q 3003 1734 2745 1975 
Q 2488 2216 2034 2216 
z
M 1403 2484 
Q 997 2584 770 2862 
Q 544 3141 544 3541 
Q 544 4100 942 4425 
Q 1341 4750 2034 4750 
Q 2731 4750 3128 4425 
Q 3525 4100 3525 3541 
Q 3525 3141 3298 2862 
Q 3072 2584 2669 2484 
Q 3125 2378 3379 2068 
Q 3634 1759 3634 1313 
Q 3634 634 3220 271 
Q 2806 -91 2034 -91 
Q 1263 -91 848 271 
Q 434 634 434 1313 
Q 434 1759 690 2068 
Q 947 2378 1403 2484 
z
M 1172 3481 
Q 1172 3119 1398 2916 
Q 1625 2713 2034 2713 
Q 2441 2713 2670 2916 
Q 2900 3119 2900 3481 
Q 2900 3844 2670 4047 
Q 2441 4250 2034 4250 
Q 1625 4250 1398 4047 
Q 1172 3844 1172 3481 
z
" id="DejaVuSans-38" transform="scale(0.015625)"/>
       </defs>
       <use xlink:href="#DejaVuSans-30"/>
       <use x="63.623047" xlink:href="#DejaVuSans-2e"/>
       <use x="95.410156" xlink:href="#DejaVuSans-38"/>
      </g>
     </g>
    </g>
    <g id="xtick_6">
     <g id="line2d_6">
      <g>
       <use style="stroke:#000000;stroke-width:0.8;" x="414.72" xlink:href="#mdbed60d632" y="307.584"/>
      </g>
     </g>
     <g id="text_6">
      <!-- 1.0 -->
      <g transform="translate(401.9975 326.7415)scale(0.16 -0.16)">
       <defs>
        <path d="M 794 531 
L 1825 531 
L 1825 4091 
L 703 3866 
L 703 4441 
L 1819 4666 
L 2450 4666 
L 2450 531 
L 3481 531 
L 3481 0 
L 794 0 
L 794 531 
z
" id="DejaVuSans-31" transform="scale(0.015625)"/>
       </defs>
       <use xlink:href="#DejaVuSans-31"/>
       <use x="63.623047" xlink:href="#DejaVuSans-2e"/>
       <use x="95.410156" xlink:href="#DejaVuSans-30"/>
      </g>
     </g>
    </g>
    <g id="text_7">
     <!-- False Positive Rate -->
     <g transform="translate(161.81375 346.2265)scale(0.16 -0.16)">
      <defs>
       <path d="M 628 4666 
L 3309 4666 
L 3309 4134 
L 1259 4134 
L 1259 2759 
L 3109 2759 
L 3109 2228 
L 1259 2228 
L 1259 0 
L 628 0 
L 628 4666 
z
" id="DejaVuSans-46" transform="scale(0.015625)"/>
       <path d="M 2194 1759 
Q 1497 1759 1228 1600 
Q 959 1441 959 1056 
Q 959 750 1161 570 
Q 1363 391 1709 391 
Q 2188 391 2477 730 
Q 2766 1069 2766 1631 
L 2766 1759 
L 2194 1759 
z
M 3341 1997 
L 3341 0 
L 2766 0 
L 2766 531 
Q 2569 213 2275 61 
Q 1981 -91 1556 -91 
Q 1019 -91 701 211 
Q 384 513 384 1019 
Q 384 1609 779 1909 
Q 1175 2209 1959 2209 
L 2766 2209 
L 2766 2266 
Q 2766 2663 2505 2880 
Q 2244 3097 1772 3097 
Q 1472 3097 1187 3025 
Q 903 2953 641 2809 
L 641 3341 
Q 956 3463 1253 3523 
Q 1550 3584 1831 3584 
Q 2591 3584 2966 3190 
Q 3341 2797 3341 1997 
z
" id="DejaVuSans-61" transform="scale(0.015625)"/>
       <path d="M 603 4863 
L 1178 4863 
L 1178 0 
L 603 0 
L 603 4863 
z
" id="DejaVuSans-6c" transform="scale(0.015625)"/>
       <path d="M 2834 3397 
L 2834 2853 
Q 2591 2978 2328 3040 
Q 2066 3103 1784 3103 
Q 1356 3103 1142 2972 
Q 928 2841 928 2578 
Q 928 2378 1081 2264 
Q 1234 2150 1697 2047 
L 1894 2003 
Q 2506 1872 2764 1633 
Q 3022 1394 3022 966 
Q 3022 478 2636 193 
Q 2250 -91 1575 -91 
Q 1294 -91 989 -36 
Q 684 19 347 128 
L 347 722 
Q 666 556 975 473 
Q 1284 391 1588 391 
Q 1994 391 2212 530 
Q 2431 669 2431 922 
Q 2431 1156 2273 1281 
Q 2116 1406 1581 1522 
L 1381 1569 
Q 847 1681 609 1914 
Q 372 2147 372 2553 
Q 372 3047 722 3315 
Q 1072 3584 1716 3584 
Q 2034 3584 2315 3537 
Q 2597 3491 2834 3397 
z
" id="DejaVuSans-73" transform="scale(0.015625)"/>
       <path d="M 3597 1894 
L 3597 1613 
L 953 1613 
Q 991 1019 1311 708 
Q 1631 397 2203 397 
Q 2534 397 2845 478 
Q 3156 559 3463 722 
L 3463 178 
Q 3153 47 2828 -22 
Q 2503 -91 2169 -91 
Q 1331 -91 842 396 
Q 353 884 353 1716 
Q 353 2575 817 3079 
Q 1281 3584 2069 3584 
Q 2775 3584 3186 3129 
Q 3597 2675 3597 1894 
z
M 3022 2063 
Q 3016 2534 2758 2815 
Q 2500 3097 2075 3097 
Q 1594 3097 1305 2825 
Q 1016 2553 972 2059 
L 3022 2063 
z
" id="DejaVuSans-65" transform="scale(0.015625)"/>
       <path id="DejaVuSans-20" transform="scale(0.015625)"/>
       <path d="M 1259 4147 
L 1259 2394 
L 2053 2394 
Q 2494 2394 2734 2622 
Q 2975 2850 2975 3272 
Q 2975 3691 2734 3919 
Q 2494 4147 2053 4147 
L 1259 4147 
z
M 628 4666 
L 2053 4666 
Q 2838 4666 3239 4311 
Q 3641 3956 3641 3272 
Q 3641 2581 3239 2228 
Q 2838 1875 2053 1875 
L 1259 1875 
L 1259 0 
L 628 0 
L 628 4666 
z
" id="DejaVuSans-50" transform="scale(0.015625)"/>
       <path d="M 1959 3097 
Q 1497 3097 1228 2736 
Q 959 2375 959 1747 
Q 959 1119 1226 758 
Q 1494 397 1959 397 
Q 2419 397 2687 759 
Q 2956 1122 2956 1747 
Q 2956 2369 2687 2733 
Q 2419 3097 1959 3097 
z
M 1959 3584 
Q 2709 3584 3137 3096 
Q 3566 2609 3566 1747 
Q 3566 888 3137 398 
Q 2709 -91 1959 -91 
Q 1206 -91 779 398 
Q 353 888 353 1747 
Q 353 2609 779 3096 
Q 1206 3584 1959 3584 
z
" id="DejaVuSans-6f" transform="scale(0.015625)"/>
       <path d="M 603 3500 
L 1178 3500 
L 1178 0 
L 603 0 
L 603 3500 
z
M 603 4863 
L 1178 4863 
L 1178 4134 
L 603 4134 
L 603 4863 
z
" id="DejaVuSans-69" transform="scale(0.015625)"/>
       <path d="M 1172 4494 
L 1172 3500 
L 2356 3500 
L 2356 3053 
L 1172 3053 
L 1172 1153 
Q 1172 725 1289 603 
Q 1406 481 1766 481 
L 2356 481 
L 2356 0 
L 1766 0 
Q 1100 0 847 248 
Q 594 497 594 1153 
L 594 3053 
L 172 3053 
L 172 3500 
L 594 3500 
L 594 4494 
L 1172 4494 
z
" id="DejaVuSans-74" transform="scale(0.015625)"/>
       <path d="M 191 3500 
L 800 3500 
L 1894 563 
L 2988 3500 
L 3597 3500 
L 2284 0 
L 1503 0 
L 191 3500 
z
" id="DejaVuSans-76" transform="scale(0.015625)"/>
       <path d="M 2841 2188 
Q 3044 2119 3236 1894 
Q 3428 1669 3622 1275 
L 4263 0 
L 3584 0 
L 2988 1197 
Q 2756 1666 2539 1819 
Q 2322 1972 1947 1972 
L 1259 1972 
L 1259 0 
L 628 0 
L 628 4666 
L 2053 4666 
Q 2853 4666 3247 4331 
Q 3641 3997 3641 3322 
Q 3641 2881 3436 2590 
Q 3231 2300 2841 2188 
z
M 1259 4147 
L 1259 2491 
L 2053 2491 
Q 2509 2491 2742 2702 
Q 2975 2913 2975 3322 
Q 2975 3731 2742 3939 
Q 2509 4147 2053 4147 
L 1259 4147 
z
" id="DejaVuSans-52" transform="scale(0.015625)"/>
      </defs>
      <use xlink:href="#DejaVuSans-46"/>
      <use x="48.394531" xlink:href="#DejaVuSans-61"/>
      <use x="109.673828" xlink:href="#DejaVuSans-6c"/>
      <use x="137.457031" xlink:href="#DejaVuSans-73"/>
      <use x="189.556641" xlink:href="#DejaVuSans-65"/>
      <use x="251.080078" xlink:href="#DejaVuSans-20"/>
      <use x="282.867188" xlink:href="#DejaVuSans-50"/>
      <use x="339.544922" xlink:href="#DejaVuSans-6f"/>
      <use x="400.726562" xlink:href="#DejaVuSans-73"/>
      <use x="452.826172" xlink:href="#DejaVuSans-69"/>
      <use x="480.609375" xlink:href="#DejaVuSans-74"/>
      <use x="519.818359" xlink:href="#DejaVuSans-69"/>
      <use x="547.601562" xlink:href="#DejaVuSans-76"/>
      <use x="606.78125" xlink:href="#DejaVuSans-65"/>
      <use x="668.304688" xlink:href="#DejaVuSans-20"/>
      <use x="700.091797" xlink:href="#DejaVuSans-52"/>
      <use x="767.324219" xlink:href="#DejaVuSans-61"/>
      <use x="828.603516" xlink:href="#DejaVuSans-74"/>
      <use x="867.8125" xlink:href="#DejaVuSans-65"/>
     </g>
    </g>
   </g>
   <g id="matplotlib.axis_2">
    <g id="ytick_1">
     <g id="line2d_7">
      <defs>
       <path d="M 0 0 
L -3.5 0 
" id="mcfd70f9c51" style="stroke:#000000;stroke-width:0.8;"/>
      </defs>
      <g>
       <use style="stroke:#000000;stroke-width:0.8;" x="57.6" xlink:href="#mcfd70f9c51" y="307.584"/>
      </g>
     </g>
     <g id="text_8">
      <!-- 0.0 -->
      <g transform="translate(25.155 313.66275)scale(0.16 -0.16)">
       <use xlink:href="#DejaVuSans-30"/>
       <use x="63.623047" xlink:href="#DejaVuSans-2e"/>
       <use x="95.410156" xlink:href="#DejaVuSans-30"/>
      </g>
     </g>
    </g>
    <g id="ytick_2">
     <g id="line2d_8">
      <g>
       <use style="stroke:#000000;stroke-width:0.8;" x="57.6" xlink:href="#mcfd70f9c51" y="256.896"/>
      </g>
     </g>
     <g id="text_9">
      <!-- 0.2 -->
      <g transform="translate(25.155 262.97475)scale(0.16 -0.16)">
       <use xlink:href="#DejaVuSans-30"/>
       <use x="63.623047" xlink:href="#DejaVuSans-2e"/>
       <use x="95.410156" xlink:href="#DejaVuSans-32"/>
      </g>
     </g>
    </g>
    <g id="ytick_3">
     <g id="line2d_9">
      <g>
       <use style="stroke:#000000;stroke-width:0.8;" x="57.6" xlink:href="#mcfd70f9c51" y="206.208"/>
      </g>
     </g>
     <g id="text_10">
      <!-- 0.4 -->
      <g transform="translate(25.155 212.28675)scale(0.16 -0.16)">
       <use xlink:href="#DejaVuSans-30"/>
       <use x="63.623047" xlink:href="#DejaVuSans-2e"/>
       <use x="95.410156" xlink:href="#DejaVuSans-34"/>
      </g>
     </g>
    </g>
    <g id="ytick_4">
     <g id="line2d_10">
      <g>
       <use style="stroke:#000000;stroke-width:0.8;" x="57.6" xlink:href="#mcfd70f9c51" y="155.52"/>
      </g>
     </g>
     <g id="text_11">
      <!-- 0.6 -->
      <g transform="translate(25.155 161.59875)scale(0.16 -0.16)">
       <use xlink:href="#DejaVuSans-30"/>
       <use x="63.623047" xlink:href="#DejaVuSans-2e"/>
       <use x="95.410156" xlink:href="#DejaVuSans-36"/>
      </g>
     </g>
    </g>
    <g id="ytick_5">
     <g id="line2d_11">
      <g>
       <use style="stroke:#000000;stroke-width:0.8;" x="57.6" xlink:href="#mcfd70f9c51" y="104.832"/>
      </g>
     </g>
     <g id="text_12">
      <!-- 0.8 -->
      <g transform="translate(25.155 110.91075)scale(0.16 -0.16)">
       <use xlink:href="#DejaVuSans-30"/>
       <use x="63.623047" xlink:href="#DejaVuSans-2e"/>
       <use x="95.410156" xlink:href="#DejaVuSans-38"/>
      </g>
     </g>
    </g>
    <g id="ytick_6">
     <g id="line2d_12">
      <g>
       <use style="stroke:#000000;stroke-width:0.8;" x="57.6" xlink:href="#mcfd70f9c51" y="54.144"/>
      </g>
     </g>
     <g id="text_13">
      <!-- 1.0 -->
      <g transform="translate(25.155 60.22275)scale(0.16 -0.16)">
       <use xlink:href="#DejaVuSans-31"/>
       <use x="63.623047" xlink:href="#DejaVuSans-2e"/>
       <use x="95.410156" xlink:href="#DejaVuSans-30"/>
      </g>
     </g>
    </g>
    <g id="text_14">
     <!-- True Positive Rate -->
     <g transform="translate(17.8275 245.7755)rotate(-90)scale(0.16 -0.16)">
      <defs>
       <path d="M -19 4666 
L 3928 4666 
L 3928 4134 
L 2272 4134 
L 2272 0 
L 1638 0 
L 1638 4134 
L -19 4134 
L -19 4666 
z
" id="DejaVuSans-54" transform="scale(0.015625)"/>
       <path d="M 2631 2963 
Q 2534 3019 2420 3045 
Q 2306 3072 2169 3072 
Q 1681 3072 1420 2755 
Q 1159 2438 1159 1844 
L 1159 0 
L 581 0 
L 581 3500 
L 1159 3500 
L 1159 2956 
Q 1341 3275 1631 3429 
Q 1922 3584 2338 3584 
Q 2397 3584 2469 3576 
Q 2541 3569 2628 3553 
L 2631 2963 
z
" id="DejaVuSans-72" transform="scale(0.015625)"/>
       <path d="M 544 1381 
L 544 3500 
L 1119 3500 
L 1119 1403 
Q 1119 906 1312 657 
Q 1506 409 1894 409 
Q 2359 409 2629 706 
Q 2900 1003 2900 1516 
L 2900 3500 
L 3475 3500 
L 3475 0 
L 2900 0 
L 2900 538 
Q 2691 219 2414 64 
Q 2138 -91 1772 -91 
Q 1169 -91 856 284 
Q 544 659 544 1381 
z
M 1991 3584 
L 1991 3584 
z
" id="DejaVuSans-75" transform="scale(0.015625)"/>
      </defs>
      <use xlink:href="#DejaVuSans-54"/>
      <use x="46.333984" xlink:href="#DejaVuSans-72"/>
      <use x="87.447266" xlink:href="#DejaVuSans-75"/>
      <use x="150.826172" xlink:href="#DejaVuSans-65"/>
      <use x="212.349609" xlink:href="#DejaVuSans-20"/>
      <use x="244.136719" xlink:href="#DejaVuSans-50"/>
      <use x="300.814453" xlink:href="#DejaVuSans-6f"/>
      <use x="361.996094" xlink:href="#DejaVuSans-73"/>
      <use x="414.095703" xlink:href="#DejaVuSans-69"/>
      <use x="441.878906" xlink:href="#DejaVuSans-74"/>
      <use x="481.087891" xlink:href="#DejaVuSans-69"/>
      <use x="508.871094" xlink:href="#DejaVuSans-76"/>
      <use x="568.050781" xlink:href="#DejaVuSans-65"/>
      <use x="629.574219" xlink:href="#DejaVuSans-20"/>
      <use x="661.361328" xlink:href="#DejaVuSans-52"/>
      <use x="728.59375" xlink:href="#DejaVuSans-61"/>
      <use x="789.873047" xlink:href="#DejaVuSans-74"/>
      <use x="829.082031" xlink:href="#DejaVuSans-65"/>
     </g>
    </g>
   </g>
   <g id="line2d_13">
    <path clip-path="url(#pde38989bf4)" d="M 57.6 307.584 
L 57.6 290.262561 
L 58.028201 290.262561 
L 58.028201 277.499396 
L 58.456403 277.499396 
L 58.456403 276.891626 
L 58.884604 276.891626 
L 58.884604 275.979971 
L 59.312806 275.979971 
L 59.312806 273.548892 
L 59.741007 273.548892 
L 59.741007 265.344 
L 60.169209 265.344 
L 60.169209 258.658532 
L 60.59741 258.658532 
L 60.59741 185.118388 
L 61.025612 185.118388 
L 61.025612 184.206734 
L 61.453813 184.206734 
L 61.453813 181.775655 
L 61.882014 181.775655 
L 61.882014 180.864 
L 62.310216 180.864 
L 62.310216 179.040691 
L 62.738417 179.040691 
L 62.738417 177.825151 
L 63.166619 177.825151 
L 63.166619 155.033784 
L 64.023022 155.033784 
L 64.023022 153.51436 
L 64.451223 153.51436 
L 64.451223 147.436662 
L 64.879424 147.436662 
L 64.879424 145.309468 
L 65.735827 145.309468 
L 65.735827 143.790043 
L 66.164029 143.790043 
L 66.164029 138.624 
L 67.020432 138.624 
L 67.020432 134.065727 
L 67.876835 134.065727 
L 67.876835 133.457957 
L 68.305036 133.457957 
L 68.305036 127.076374 
L 68.733237 127.076374 
L 68.733237 126.468604 
L 69.161439 126.468604 
L 69.161439 126.164719 
L 69.58964 126.164719 
L 69.58964 123.73364 
L 70.017842 123.73364 
L 70.017842 123.125871 
L 70.446043 123.125871 
L 70.446043 122.821986 
L 70.874245 122.821986 
L 70.874245 122.518101 
L 71.302446 122.518101 
L 71.302446 122.214216 
L 72.158849 122.214216 
L 72.158849 120.998676 
L 72.58705 120.998676 
L 72.58705 120.694791 
L 73.015252 120.694791 
L 73.015252 117.352058 
L 74.299856 117.352058 
L 74.299856 116.136518 
L 74.728058 116.136518 
L 74.728058 115.224863 
L 75.156259 115.224863 
L 75.156259 114.617094 
L 75.58446 114.617094 
L 75.58446 114.313209 
L 76.440863 114.313209 
L 76.440863 111.882129 
L 76.869065 111.882129 
L 76.869065 111.578245 
L 77.297266 111.578245 
L 77.297266 107.931626 
L 77.725468 107.931626 
L 77.725468 107.627741 
L 78.153669 107.627741 
L 78.153669 106.412201 
L 78.581871 106.412201 
L 78.581871 105.500547 
L 79.010072 105.500547 
L 79.010072 104.892777 
L 79.866475 104.892777 
L 79.866475 104.588892 
L 80.722878 104.588892 
L 80.722878 103.677237 
L 81.579281 103.677237 
L 81.579281 103.069468 
L 82.007482 103.069468 
L 82.007482 102.157813 
L 82.435683 102.157813 
L 82.435683 100.942273 
L 83.292086 100.942273 
L 83.292086 100.334504 
L 83.720288 100.334504 
L 83.720288 99.118964 
L 84.148489 99.118964 
L 84.148489 98.815079 
L 84.576691 98.815079 
L 84.576691 98.207309 
L 85.004892 98.207309 
L 85.004892 96.384 
L 85.433094 96.384 
L 85.433094 95.77623 
L 85.861295 95.77623 
L 85.861295 95.472345 
L 86.289496 95.472345 
L 86.289496 94.560691 
L 88.002302 94.560691 
L 88.002302 94.256806 
L 88.858705 94.256806 
L 88.858705 93.649036 
L 89.286906 93.649036 
L 89.286906 93.345151 
L 89.715108 93.345151 
L 89.715108 92.433496 
L 90.143309 92.433496 
L 90.143309 91.825727 
L 90.999712 91.825727 
L 90.999712 90.914072 
L 92.284317 90.914072 
L 92.284317 90.306302 
L 92.712518 90.306302 
L 92.712518 89.394647 
L 93.140719 89.394647 
L 93.140719 88.482993 
L 94.425324 88.482993 
L 94.425324 87.875223 
L 95.281727 87.875223 
L 95.281727 87.571338 
L 95.709928 87.571338 
L 95.709928 86.963568 
L 96.138129 86.963568 
L 96.138129 86.355799 
L 96.994532 86.355799 
L 96.994532 86.051914 
L 97.422734 86.051914 
L 97.422734 85.748029 
L 97.850935 85.748029 
L 97.850935 85.444144 
L 98.279137 85.444144 
L 98.279137 85.140259 
L 99.563741 85.140259 
L 101.704748 82.10141 
L 102.561151 82.10141 
L 102.561151 81.797525 
L 102.989353 81.797525 
L 102.989353 81.49364 
L 103.845755 81.49364 
L 103.845755 81.189755 
L 105.558561 81.189755 
L 105.558561 80.278101 
L 108.12777 80.278101 
L 108.12777 79.670331 
L 109.412374 79.670331 
L 109.412374 79.366446 
L 110.268777 79.366446 
L 110.268777 78.758676 
L 110.696978 78.758676 
L 110.696978 78.454791 
L 111.553381 78.454791 
L 111.553381 78.150906 
L 111.981583 78.150906 
L 111.981583 77.543137 
L 113.694388 77.543137 
L 113.694388 76.935367 
L 114.978993 76.935367 
L 114.978993 75.415942 
L 116.263597 75.415942 
L 116.263597 75.112058 
L 117.12 75.112058 
L 117.12 74.808173 
L 118.832806 74.808173 
L 118.832806 74.504288 
L 119.689209 74.504288 
L 119.689209 74.200403 
L 120.545612 74.200403 
L 120.545612 73.896518 
L 120.973813 73.896518 
L 120.973813 73.592633 
L 121.402014 73.592633 
L 121.402014 73.288748 
L 121.830216 73.288748 
L 121.830216 72.680978 
L 123.543022 72.680978 
L 123.543022 72.377094 
L 123.971223 72.377094 
L 123.971223 72.073209 
L 124.399424 72.073209 
L 124.399424 70.857669 
L 125.684029 70.857669 
L 125.684029 69.946014 
L 127.825036 69.946014 
L 127.825036 69.642129 
L 128.681439 69.642129 
L 128.681439 69.338245 
L 130.394245 69.338245 
L 130.394245 69.03436 
L 131.678849 69.03436 
L 131.678849 68.730475 
L 134.676259 68.730475 
L 134.676259 68.42659 
L 136.817266 68.42659 
L 136.817266 68.122705 
L 144.953094 68.122705 
L 144.953094 67.21105 
L 146.665899 67.21105 
L 146.665899 66.907165 
L 150.519712 66.907165 
L 150.519712 66.299396 
L 153.517122 66.299396 
L 153.517122 65.995511 
L 154.801727 65.995511 
L 154.801727 65.691626 
L 155.658129 65.691626 
L 155.658129 65.387741 
L 156.942734 65.387741 
L 156.942734 65.083856 
L 159.511942 65.083856 
L 159.511942 64.779971 
L 159.940144 64.779971 
L 159.940144 64.476086 
L 160.796547 64.476086 
L 160.796547 63.868317 
L 163.365755 63.868317 
L 163.365755 63.564432 
L 165.078561 63.564432 
L 165.078561 63.260547 
L 167.219568 63.260547 
L 167.219568 62.652777 
L 167.64777 62.652777 
L 167.64777 62.348892 
L 174.498993 62.348892 
L 174.498993 61.741122 
L 175.783597 61.741122 
L 175.783597 61.437237 
L 178.781007 61.437237 
L 178.781007 61.133353 
L 183.491223 61.133353 
L 183.491223 60.829468 
L 184.347626 60.829468 
L 184.347626 60.525583 
L 184.775827 60.525583 
L 184.775827 59.917813 
L 189.914245 59.917813 
L 189.914245 59.613928 
L 190.770647 59.613928 
L 190.770647 59.310043 
L 193.768058 59.310043 
L 193.768058 59.006158 
L 197.193669 59.006158 
L 197.193669 58.702273 
L 201.903885 58.702273 
L 201.903885 58.398388 
L 204.044892 58.398388 
L 204.044892 58.094504 
L 205.757698 58.094504 
L 205.757698 57.790619 
L 207.470504 57.790619 
L 207.470504 57.486734 
L 213.037122 57.486734 
L 213.037122 56.878964 
L 230.593381 56.878964 
L 230.593381 56.575079 
L 233.590791 56.575079 
L 233.590791 56.271194 
L 243.867626 56.271194 
L 243.867626 55.967309 
L 344.494964 55.967309 
L 344.494964 55.663424 
L 360.338417 55.663424 
L 360.338417 55.35954 
L 368.474245 55.35954 
L 368.474245 55.055655 
L 378.322878 55.055655 
L 378.322878 54.75177 
L 398.448345 54.75177 
L 398.448345 54.447885 
L 407.440576 54.447885 
L 407.440576 54.144 
L 414.72 54.144 
L 414.72 54.144 
" style="fill:none;stroke:#000000;stroke-linecap:square;stroke-width:2;"/>
   </g>
   <g id="line2d_14">
    <path clip-path="url(#pde38989bf4)" d="M 57.6 307.584 
L 57.6 302.417957 
L 58.028201 302.417957 
L 58.028201 296.036374 
L 58.456403 296.036374 
L 58.456403 281.753784 
L 58.884604 281.753784 
L 58.884604 274.764432 
L 59.312806 274.764432 
L 59.312806 268.990619 
L 59.741007 268.990619 
L 59.741007 257.746878 
L 60.169209 257.746878 
L 60.169209 186.333928 
L 60.59741 186.333928 
L 60.59741 179.040691 
L 61.025612 179.040691 
L 61.025612 176.913496 
L 61.453813 176.913496 
L 61.453813 164.454216 
L 62.310216 164.454216 
L 62.310216 160.503712 
L 62.738417 160.503712 
L 62.738417 159.288173 
L 63.166619 159.288173 
L 63.166619 158.072633 
L 63.59482 158.072633 
L 63.59482 156.553209 
L 64.023022 156.553209 
L 64.023022 153.210475 
L 64.451223 153.210475 
L 64.451223 150.779396 
L 64.879424 150.779396 
L 64.879424 148.652201 
L 65.307626 148.652201 
L 65.307626 148.044432 
L 65.735827 148.044432 
L 65.735827 144.397813 
L 66.59223 144.397813 
L 66.59223 144.093928 
L 67.020432 144.093928 
L 67.020432 143.486158 
L 67.448633 143.486158 
L 67.448633 140.143424 
L 67.876835 140.143424 
L 67.876835 138.01623 
L 68.305036 138.01623 
L 68.305036 137.104576 
L 69.161439 137.104576 
L 69.161439 132.242417 
L 69.58964 132.242417 
L 69.58964 131.938532 
L 70.446043 131.938532 
L 70.446043 130.419108 
L 70.874245 130.419108 
L 70.874245 129.203568 
L 71.302446 129.203568 
L 71.302446 127.380259 
L 72.158849 127.380259 
L 72.158849 126.772489 
L 72.58705 126.772489 
L 72.58705 126.468604 
L 73.015252 126.468604 
L 73.015252 124.645295 
L 73.443453 124.645295 
L 73.443453 123.73364 
L 73.871655 123.73364 
L 73.871655 123.125871 
L 74.299856 123.125871 
L 74.299856 122.214216 
L 74.728058 122.214216 
L 74.728058 120.087022 
L 75.58446 120.087022 
L 75.58446 117.352058 
L 76.012662 117.352058 
L 76.012662 116.136518 
L 77.297266 116.136518 
L 77.297266 110.362705 
L 77.725468 110.362705 
L 77.725468 108.843281 
L 78.153669 108.843281 
L 78.153669 106.716086 
L 78.581871 106.716086 
L 78.581871 105.804432 
L 79.010072 105.804432 
L 79.010072 104.588892 
L 79.438273 104.588892 
L 79.438273 103.981122 
L 79.866475 103.981122 
L 79.866475 102.461698 
L 81.151079 102.461698 
L 81.151079 101.550043 
L 82.863885 101.550043 
L 82.863885 101.246158 
L 83.292086 101.246158 
L 83.292086 100.942273 
L 83.720288 100.942273 
L 83.720288 99.726734 
L 84.576691 99.726734 
L 84.576691 99.422849 
L 85.004892 99.422849 
L 85.004892 99.118964 
L 85.433094 99.118964 
L 85.433094 98.815079 
L 85.861295 98.815079 
L 85.861295 98.207309 
L 86.289496 98.207309 
L 86.289496 97.59954 
L 86.717698 97.59954 
L 86.717698 96.384 
L 87.145899 96.384 
L 87.145899 95.77623 
L 87.574101 95.77623 
L 87.574101 94.864576 
L 89.715108 94.864576 
L 89.715108 93.952921 
L 90.571511 93.952921 
L 90.571511 92.737381 
L 91.427914 92.737381 
L 91.427914 92.433496 
L 91.856115 92.433496 
L 91.856115 91.825727 
L 92.284317 91.825727 
L 92.284317 91.521842 
L 93.140719 91.521842 
L 93.140719 90.914072 
L 93.568921 90.914072 
L 93.568921 90.002417 
L 94.425324 90.002417 
L 94.425324 88.179108 
L 95.709928 88.179108 
L 95.709928 86.963568 
L 96.138129 86.963568 
L 96.138129 86.355799 
L 96.566331 86.355799 
L 96.566331 86.051914 
L 96.994532 86.051914 
L 96.994532 85.444144 
L 101.276547 83.924719 
L 101.276547 83.013065 
L 101.704748 83.013065 
L 101.704748 82.70918 
L 102.13295 82.70918 
L 102.13295 82.405295 
L 102.561151 82.405295 
L 102.561151 82.10141 
L 102.989353 82.10141 
L 102.989353 81.49364 
L 103.845755 81.49364 
L 103.845755 81.189755 
L 104.702158 81.189755 
L 104.702158 80.885871 
L 105.13036 80.885871 
L 105.13036 80.278101 
L 105.986763 80.278101 
L 105.986763 79.366446 
L 107.271367 79.366446 
L 107.271367 79.062561 
L 108.555971 79.062561 
L 108.555971 78.758676 
L 109.412374 78.758676 
L 109.412374 77.847022 
L 110.696978 77.847022 
L 110.696978 77.239252 
L 111.553381 77.239252 
L 111.553381 76.935367 
L 112.837986 76.935367 
L 112.837986 76.631482 
L 113.266187 76.631482 
L 113.266187 76.327597 
L 114.12259 76.327597 
L 114.12259 75.719827 
L 114.550791 75.719827 
L 114.550791 74.504288 
L 115.835396 74.504288 
L 115.835396 74.200403 
L 116.263597 74.200403 
L 116.263597 73.896518 
L 117.12 73.896518 
L 117.12 73.592633 
L 119.689209 73.592633 
L 119.689209 73.288748 
L 120.545612 73.288748 
L 120.545612 72.984863 
L 120.973813 72.984863 
L 120.973813 72.680978 
L 122.686619 72.680978 
L 122.686619 72.377094 
L 123.543022 72.377094 
L 123.543022 71.769324 
L 125.255827 71.769324 
L 125.255827 71.465439 
L 126.540432 71.465439 
L 126.540432 71.161554 
L 127.396835 71.161554 
L 127.396835 70.553784 
L 128.681439 70.553784 
L 128.681439 69.946014 
L 129.10964 69.946014 
L 129.10964 69.338245 
L 129.966043 69.338245 
L 129.966043 69.03436 
L 131.250647 69.03436 
L 131.250647 68.730475 
L 132.963453 68.730475 
L 132.963453 68.42659 
L 133.391655 68.42659 
L 133.391655 68.122705 
L 138.530072 68.122705 
L 138.530072 67.81882 
L 138.958273 67.81882 
L 138.958273 67.514935 
L 142.383885 67.514935 
L 142.383885 66.907165 
L 142.812086 66.907165 
L 142.812086 66.603281 
L 143.668489 66.603281 
L 143.668489 66.299396 
L 144.953094 66.299396 
L 144.953094 65.995511 
L 146.665899 65.995511 
L 146.665899 65.083856 
L 151.376115 65.083856 
L 151.376115 64.779971 
L 151.804317 64.779971 
L 151.804317 64.476086 
L 153.517122 64.476086 
L 153.517122 63.868317 
L 153.945324 63.868317 
L 153.945324 63.564432 
L 154.373525 63.564432 
L 154.373525 63.260547 
L 154.801727 63.260547 
L 154.801727 62.956662 
L 155.658129 62.956662 
L 155.658129 62.652777 
L 159.083741 62.652777 
L 159.083741 62.348892 
L 159.511942 62.348892 
L 159.511942 62.045007 
L 160.368345 62.045007 
L 160.368345 61.741122 
L 169.360576 61.741122 
L 169.360576 61.437237 
L 170.216978 61.437237 
L 170.216978 60.829468 
L 176.64 60.829468 
L 176.64 60.221698 
L 183.919424 60.221698 
L 183.919424 59.917813 
L 186.060432 59.917813 
L 186.060432 59.310043 
L 189.057842 59.310043 
L 189.057842 59.006158 
L 197.621871 59.006158 
L 197.621871 58.702273 
L 199.762878 58.702273 
L 199.762878 58.094504 
L 231.877986 58.094504 
L 231.877986 57.790619 
L 233.590791 57.790619 
L 233.590791 57.486734 
L 236.16 57.486734 
L 236.16 57.182849 
L 237.444604 57.182849 
L 237.444604 56.878964 
L 240.870216 56.878964 
L 240.870216 56.575079 
L 242.15482 56.575079 
L 242.15482 56.271194 
L 345.779568 56.271194 
L 345.779568 55.967309 
L 355.2 55.967309 
L 355.2 55.663424 
L 366.761439 55.663424 
L 366.761439 55.35954 
L 370.18705 55.35954 
L 370.18705 55.055655 
L 371.471655 55.055655 
L 371.471655 54.75177 
L 372.328058 54.75177 
L 372.328058 54.447885 
L 390.312518 54.447885 
L 390.312518 54.144 
L 414.72 54.144 
L 414.72 54.144 
" style="fill:none;stroke:#00bc00;stroke-linecap:square;stroke-width:2;"/>
   </g>
   <g id="line2d_15">
    <path clip-path="url(#pde38989bf4)" d="M 57.6 307.584 
L 57.6 303.025727 
L 57.814101 303.025727 
L 57.814101 296.492201 
L 58.028201 296.492201 
L 58.028201 289.502849 
L 58.242302 289.502849 
L 58.242302 283.729036 
L 58.456403 283.729036 
L 58.456403 278.41105 
L 58.670504 278.41105 
L 58.670504 274.308604 
L 58.884604 274.308604 
L 58.884604 273.245007 
L 59.098705 273.245007 
L 59.098705 272.637237 
L 59.312806 272.637237 
L 59.312806 272.333353 
L 59.526906 272.333353 
L 59.526906 270.813928 
L 59.741007 270.813928 
L 59.741007 263.064863 
L 59.955108 263.064863 
L 59.955108 260.026014 
L 60.169209 260.026014 
L 60.169209 256.835223 
L 60.383309 256.835223 
L 60.383309 221.432633 
L 60.59741 221.432633 
L 60.59741 183.447022 
L 60.811511 183.447022 
L 60.811511 181.775655 
L 61.025612 181.775655 
L 61.025612 181.015942 
L 61.239712 181.015942 
L 61.239712 179.800403 
L 61.453813 179.800403 
L 61.453813 178.888748 
L 61.667914 178.888748 
L 61.667914 178.584863 
L 61.882014 178.584863 
L 61.882014 176.305727 
L 62.096115 176.305727 
L 62.096115 174.63436 
L 62.310216 174.63436 
L 62.310216 167.645007 
L 62.738417 167.645007 
L 62.738417 164.454216 
L 62.952518 164.454216 
L 62.952518 162.934791 
L 63.166619 162.934791 
L 63.166619 160.655655 
L 63.380719 160.655655 
L 63.380719 159.592058 
L 63.59482 159.592058 
L 63.59482 156.249324 
L 63.808921 156.249324 
L 63.808921 152.90659 
L 64.451223 152.90659 
L 64.451223 151.69105 
L 64.665324 151.69105 
L 64.665324 150.627453 
L 64.879424 150.627453 
L 64.879424 149.867741 
L 65.093525 149.867741 
L 65.093525 146.525007 
L 65.307626 146.525007 
L 65.307626 145.917237 
L 65.735827 145.917237 
L 65.735827 145.46141 
L 65.949928 145.46141 
L 65.949928 144.549755 
L 66.164029 144.549755 
L 66.164029 143.941986 
L 66.378129 143.941986 
L 66.378129 143.486158 
L 66.59223 143.486158 
L 66.59223 141.966734 
L 66.806331 141.966734 
L 66.806331 141.662849 
L 67.020432 141.662849 
L 67.020432 140.295367 
L 67.234532 140.295367 
L 67.234532 138.775942 
L 67.662734 138.775942 
L 67.662734 137.256518 
L 68.090935 137.256518 
L 68.090935 133.761842 
L 68.305036 133.761842 
L 68.305036 133.457957 
L 68.733237 133.457957 
L 68.733237 132.850187 
L 68.947338 132.850187 
L 68.947338 132.698245 
L 69.161439 132.698245 
L 69.161439 132.39436 
L 69.37554 132.39436 
L 69.37554 130.57105 
L 69.58964 130.57105 
L 69.58964 129.507453 
L 69.803741 129.507453 
L 69.803741 127.532201 
L 70.017842 127.532201 
L 70.017842 127.228317 
L 70.446043 127.228317 
L 70.446043 126.620547 
L 70.660144 126.620547 
L 70.660144 126.468604 
L 71.088345 126.468604 
L 71.088345 126.164719 
L 71.302446 126.164719 
L 71.302446 124.34141 
L 71.516547 124.34141 
L 71.516547 124.189468 
L 71.730647 124.189468 
L 71.730647 123.429755 
L 71.944748 123.429755 
L 71.944748 123.277813 
L 72.158849 123.277813 
L 72.158849 123.125871 
L 72.58705 123.125871 
L 72.58705 122.670043 
L 73.015252 122.670043 
L 73.015252 122.518101 
L 73.229353 122.518101 
L 73.229353 121.758388 
L 73.443453 121.758388 
L 73.443453 120.998676 
L 73.657554 120.998676 
L 73.657554 120.390906 
L 74.085755 120.390906 
L 74.085755 120.238964 
L 74.299856 120.238964 
L 74.299856 117.504 
L 74.513957 117.504 
L 74.513957 116.744288 
L 75.58446 116.744288 
L 75.58446 116.440403 
L 75.798561 116.440403 
L 75.798561 115.528748 
L 76.012662 115.528748 
L 76.012662 114.617094 
L 76.226763 114.617094 
L 76.226763 114.009324 
L 76.440863 114.009324 
L 76.440863 113.857381 
L 76.869065 113.857381 
L 76.869065 112.034072 
L 77.083165 112.034072 
L 77.083165 111.578245 
L 77.297266 111.578245 
L 77.297266 109.754935 
L 77.511367 109.754935 
L 77.511367 108.539396 
L 77.725468 108.539396 
L 77.725468 108.387453 
L 77.939568 108.387453 
L 77.939568 108.083568 
L 78.153669 108.083568 
L 78.153669 107.171914 
L 78.36777 107.171914 
L 78.36777 106.412201 
L 78.581871 106.412201 
L 78.581871 105.804432 
L 79.010072 105.804432 
L 79.010072 105.652489 
L 79.438273 105.652489 
L 79.438273 105.500547 
L 79.652374 105.500547 
L 79.652374 105.044719 
L 80.080576 105.044719 
L 80.080576 104.588892 
L 80.294676 104.588892 
L 80.294676 104.285007 
L 80.508777 104.285007 
L 80.508777 103.373353 
L 80.722878 103.373353 
L 80.722878 103.22141 
L 80.936978 103.22141 
L 80.936978 102.765583 
L 81.151079 102.765583 
L 81.151079 102.309755 
L 81.579281 102.309755 
L 81.579281 101.550043 
L 81.793381 101.550043 
L 81.793381 101.246158 
L 82.007482 101.246158 
L 82.007482 100.790331 
L 82.649784 100.790331 
L 82.649784 100.334504 
L 82.863885 100.334504 
L 82.863885 100.182561 
L 83.506187 100.182561 
L 83.506187 100.030619 
L 83.934388 100.030619 
L 83.934388 99.726734 
L 84.148489 99.726734 
L 84.148489 99.118964 
L 84.36259 99.118964 
L 84.36259 98.207309 
L 84.790791 98.207309 
L 84.790791 98.055367 
L 85.004892 98.055367 
L 85.004892 97.59954 
L 85.218993 97.59954 
L 85.218993 97.447597 
L 85.647194 97.447597 
L 85.647194 97.143712 
L 86.075396 97.143712 
L 86.075396 96.535942 
L 86.503597 96.535942 
L 86.503597 96.384 
L 86.717698 96.384 
L 86.717698 96.232058 
L 86.931799 96.232058 
L 86.931799 96.080115 
L 87.36 96.080115 
L 87.36 95.472345 
L 87.788201 95.472345 
L 87.788201 95.016518 
L 88.002302 95.016518 
L 88.002302 94.864576 
L 88.216403 94.864576 
L 88.216403 94.560691 
L 88.644604 94.560691 
L 88.644604 93.800978 
L 89.072806 93.800978 
L 89.072806 93.649036 
L 89.501007 93.649036 
L 89.501007 93.345151 
L 90.143309 93.345151 
L 90.143309 93.041266 
L 90.35741 93.041266 
L 90.35741 92.889324 
L 90.785612 92.889324 
L 90.785612 92.281554 
L 90.999712 92.281554 
L 90.999712 91.977669 
L 91.213813 91.977669 
L 91.213813 91.825727 
L 91.856115 91.825727 
L 91.856115 91.521842 
L 92.070216 91.521842 
L 92.070216 91.066014 
L 92.284317 91.066014 
L 92.284317 90.762129 
L 92.498417 90.762129 
L 92.498417 90.458245 
L 93.140719 90.458245 
L 93.140719 90.002417 
L 93.35482 90.002417 
L 93.35482 89.394647 
L 93.783022 89.394647 
L 93.783022 88.786878 
L 94.425324 88.786878 
L 94.425324 88.027165 
L 95.281727 88.027165 
L 95.281727 87.571338 
L 95.495827 87.571338 
L 95.495827 87.267453 
L 95.709928 87.267453 
L 95.709928 87.115511 
L 95.924029 87.115511 
L 95.924029 86.659683 
L 96.138129 86.659683 
L 96.138129 86.507741 
L 96.566331 86.507741 
L 96.566331 85.899971 
L 96.994532 85.899971 
L 96.994532 85.748029 
L 97.208633 85.748029 
L 97.208633 85.596086 
L 97.422734 85.596086 
L 97.422734 85.444144 
L 97.636835 85.444144 
L 97.636835 85.292201 
L 98.279137 85.292201 
L 101.490647 83.013065 
L 101.490647 82.557237 
L 101.704748 82.557237 
L 101.704748 82.405295 
L 101.918849 82.405295 
L 101.918849 82.253353 
L 102.13295 82.253353 
L 102.13295 82.10141 
L 102.34705 82.10141 
L 102.34705 81.797525 
L 103.203453 81.797525 
L 103.203453 81.49364 
L 103.417554 81.49364 
L 103.417554 81.341698 
L 104.059856 81.341698 
L 104.059856 81.189755 
L 104.273957 81.189755 
L 104.273957 81.037813 
L 104.702158 81.037813 
L 104.702158 80.885871 
L 105.34446 80.885871 
L 105.34446 80.278101 
L 106.414964 80.278101 
L 106.414964 79.822273 
L 107.271367 79.822273 
L 107.271367 79.518388 
L 108.12777 79.518388 
L 108.12777 79.366446 
L 108.770072 79.366446 
L 108.770072 78.910619 
L 109.198273 78.910619 
L 109.198273 78.758676 
L 109.626475 78.758676 
L 109.626475 78.606734 
L 110.268777 78.606734 
L 110.268777 78.454791 
L 110.696978 78.454791 
L 110.696978 77.998964 
L 110.911079 77.998964 
L 110.911079 77.847022 
L 111.339281 77.847022 
L 111.339281 77.695079 
L 112.195683 77.695079 
L 112.195683 77.391194 
L 112.409784 77.391194 
L 112.409784 77.239252 
L 112.837986 77.239252 
L 112.837986 76.783424 
L 113.266187 76.783424 
L 113.266187 76.47954 
L 113.480288 76.47954 
L 113.480288 76.175655 
L 114.550791 76.175655 
L 114.550791 75.87177 
L 114.978993 75.87177 
L 114.978993 75.719827 
L 115.193094 75.719827 
L 115.193094 75.567885 
L 115.835396 75.567885 
L 115.835396 75.264 
L 116.691799 75.264 
L 116.691799 74.960115 
L 116.905899 74.960115 
L 116.905899 74.808173 
L 117.12 74.808173 
L 117.12 74.65623 
L 117.334101 74.65623 
L 117.334101 74.352345 
L 118.190504 74.352345 
L 118.190504 74.04846 
L 118.618705 74.04846 
L 118.618705 73.744576 
L 118.832806 73.744576 
L 118.832806 73.592633 
L 119.475108 73.592633 
L 119.475108 73.440691 
L 119.689209 73.440691 
L 119.689209 73.136806 
L 120.973813 73.136806 
L 120.973813 72.984863 
L 121.830216 72.984863 
L 121.830216 72.832921 
L 122.258417 72.832921 
L 122.258417 72.529036 
L 122.472518 72.529036 
L 122.472518 72.073209 
L 122.686619 72.073209 
L 122.686619 71.921266 
L 123.328921 71.921266 
L 123.328921 71.465439 
L 123.971223 71.465439 
L 123.971223 71.313496 
L 124.399424 71.313496 
L 124.399424 71.161554 
L 125.469928 71.161554 
L 125.469928 70.857669 
L 126.11223 70.857669 
L 126.11223 70.705727 
L 126.754532 70.705727 
L 126.754532 70.553784 
L 126.968633 70.553784 
L 126.968633 70.401842 
L 128.253237 70.401842 
L 128.253237 70.249899 
L 128.681439 70.249899 
L 128.681439 70.097957 
L 129.323741 70.097957 
L 129.323741 69.794072 
L 129.966043 69.794072 
L 129.966043 69.642129 
L 130.180144 69.642129 
L 130.180144 69.338245 
L 130.394245 69.338245 
L 130.394245 69.03436 
L 131.250647 69.03436 
L 131.250647 68.882417 
L 132.321151 68.882417 
L 132.321151 68.730475 
L 133.605755 68.730475 
L 133.605755 68.578532 
L 134.033957 68.578532 
L 134.033957 68.42659 
L 134.248058 68.42659 
L 134.248058 68.274647 
L 135.960863 68.274647 
L 135.960863 68.122705 
L 138.530072 68.122705 
L 138.530072 67.970763 
L 139.172374 67.970763 
L 139.172374 67.81882 
L 141.741583 67.81882 
L 141.741583 67.514935 
L 141.955683 67.514935 
L 141.955683 67.362993 
L 142.812086 67.362993 
L 142.812086 67.21105 
L 144.096691 67.21105 
L 144.096691 67.059108 
L 145.381295 67.059108 
L 145.381295 66.907165 
L 145.809496 66.907165 
L 145.809496 66.147453 
L 146.88 66.147453 
L 146.88 65.995511 
L 150.733813 65.995511 
L 150.733813 65.843568 
L 150.947914 65.843568 
L 150.947914 65.539683 
L 151.804317 65.539683 
L 151.804317 65.387741 
L 152.87482 65.387741 
L 152.87482 65.235799 
L 153.945324 65.235799 
L 153.945324 65.083856 
L 154.159424 65.083856 
L 154.159424 64.779971 
L 154.801727 64.779971 
L 154.801727 64.476086 
L 155.015827 64.476086 
L 155.015827 64.324144 
L 155.229928 64.324144 
L 155.229928 64.172201 
L 156.300432 64.172201 
L 156.300432 64.020259 
L 156.514532 64.020259 
L 156.514532 63.868317 
L 159.083741 63.868317 
L 159.083741 63.716374 
L 159.511942 63.716374 
L 159.511942 63.412489 
L 159.726043 63.412489 
L 159.726043 63.260547 
L 160.582446 63.260547 
L 160.582446 62.956662 
L 161.010647 62.956662 
L 161.010647 62.804719 
L 163.793957 62.804719 
L 163.793957 62.652777 
L 165.292662 62.652777 
L 165.292662 62.500835 
L 167.861871 62.500835 
L 167.861871 62.348892 
L 168.290072 62.348892 
L 168.290072 62.19695 
L 168.504173 62.19695 
L 168.504173 62.045007 
L 169.360576 62.045007 
L 169.360576 61.741122 
L 169.788777 61.741122 
L 169.788777 61.58918 
L 174.713094 61.58918 
L 174.713094 61.285295 
L 176.854101 61.285295 
L 176.854101 60.98141 
L 178.995108 60.98141 
L 178.995108 60.829468 
L 180.922014 60.829468 
L 180.922014 60.677525 
L 181.350216 60.677525 
L 181.350216 60.525583 
L 183.491223 60.525583 
L 183.491223 60.37364 
L 184.133525 60.37364 
L 184.133525 60.221698 
L 184.989928 60.221698 
L 184.989928 60.069755 
L 186.274532 60.069755 
L 186.274532 59.917813 
L 186.916835 59.917813 
L 186.916835 59.613928 
L 187.773237 59.613928 
L 187.773237 59.461986 
L 192.483453 59.461986 
L 192.483453 59.310043 
L 193.553957 59.310043 
L 193.553957 59.158101 
L 195.052662 59.158101 
L 195.052662 59.006158 
L 196.765468 59.006158 
L 196.765468 58.550331 
L 201.475683 58.550331 
L 201.475683 58.398388 
L 206.185899 58.398388 
L 206.185899 58.246446 
L 207.684604 58.246446 
L 207.684604 58.094504 
L 210.896115 58.094504 
L 210.896115 57.942561 
L 213.037122 57.942561 
L 213.037122 57.790619 
L 217.533237 57.790619 
L 217.533237 57.486734 
L 227.381871 57.486734 
L 227.381871 57.334791 
L 229.736978 57.334791 
L 229.736978 57.182849 
L 232.948489 57.182849 
L 232.948489 57.030906 
L 233.376691 57.030906 
L 233.376691 56.878964 
L 234.661295 56.878964 
L 234.661295 56.727022 
L 236.374101 56.727022 
L 236.374101 56.575079 
L 237.444604 56.575079 
L 237.444604 56.423137 
L 239.799712 56.423137 
L 239.799712 56.271194 
L 293.324892 56.271194 
L 293.324892 56.119252 
L 343.21036 56.119252 
L 343.21036 55.967309 
L 347.706475 55.967309 
L 347.706475 55.815367 
L 351.988489 55.815367 
L 351.988489 55.663424 
L 362.907626 55.663424 
L 362.907626 55.511482 
L 365.048633 55.511482 
L 365.048633 55.35954 
L 365.476835 55.35954 
L 365.476835 55.207597 
L 366.333237 55.207597 
L 366.333237 55.055655 
L 367.831942 55.055655 
L 367.831942 54.903712 
L 373.612662 54.903712 
L 373.612662 54.75177 
L 381.106187 54.75177 
L 381.106187 54.599827 
L 389.242014 54.599827 
L 389.242014 54.447885 
L 399.090647 54.447885 
L 399.090647 54.295942 
L 408.296978 54.295942 
L 408.296978 54.144 
L 414.72 54.144 
L 414.72 54.144 
" style="fill:none;stroke:#ff1493;stroke-dasharray:4,6.6;stroke-dashoffset:0;stroke-width:4;"/>
   </g>
   <g id="line2d_16">
    <path clip-path="url(#pde38989bf4)" d="M 57.6 296.340259 
L 58.456403 279.322705 
L 59.312806 271.269755 
L 59.741007 261.545439 
L 60.59741 182.07954 
L 61.025612 180.560115 
L 61.453813 173.114935 
L 61.882014 172.659108 
L 62.310216 169.772201 
L 62.738417 168.556662 
L 63.166619 156.553209 
L 63.59482 155.793496 
L 64.023022 153.362417 
L 64.451223 149.108029 
L 64.879424 146.980835 
L 65.307626 146.67695 
L 66.164029 141.510906 
L 66.59223 141.358964 
L 67.020432 138.775942 
L 67.876835 135.737094 
L 68.305036 132.090475 
L 68.733237 131.78659 
L 69.161439 129.203568 
L 69.58964 127.836086 
L 70.017842 127.532201 
L 71.302446 124.797237 
L 72.58705 123.581698 
L 73.015252 120.998676 
L 73.871655 120.238964 
L 74.299856 119.175367 
L 74.728058 117.655942 
L 75.156259 117.352058 
L 75.58446 115.832633 
L 76.012662 115.224863 
L 76.440863 114.009324 
L 76.869065 113.857381 
L 77.297266 109.147165 
L 77.725468 108.235511 
L 78.153669 106.564144 
L 79.010072 104.740835 
L 79.438273 104.43695 
L 79.866475 103.525295 
L 80.722878 103.069468 
L 82.435683 101.246158 
L 82.863885 101.094216 
L 83.292086 100.638388 
L 83.720288 99.422849 
L 84.148489 99.270906 
L 84.576691 98.815079 
L 85.004892 97.751482 
L 85.861295 96.839827 
L 86.717698 95.472345 
L 87.145899 95.16846 
L 87.574101 94.712633 
L 89.286906 94.104863 
L 89.715108 93.193209 
L 90.143309 92.889324 
L 90.999712 91.825727 
L 91.427914 91.673784 
L 91.856115 91.369899 
L 92.712518 90.458245 
L 93.140719 89.698532 
L 93.568921 89.242705 
L 94.425324 88.027165 
L 95.281727 87.875223 
L 95.709928 86.963568 
L 96.138129 86.355799 
L 96.566331 86.203856 
L 96.994532 85.748029 
L 98.279137 85.064288 
L 99.563741 84.836374 
L 101.704748 82.405295 
L 102.13295 82.253353 
L 102.561151 81.949468 
L 102.989353 81.49364 
L 103.845755 81.189755 
L 104.702158 81.037813 
L 105.13036 80.733928 
L 105.986763 79.822273 
L 107.271367 79.670331 
L 108.555971 79.214504 
L 109.412374 78.606734 
L 110.268777 78.302849 
L 110.696978 77.847022 
L 111.553381 77.543137 
L 111.981583 77.239252 
L 113.266187 76.935367 
L 114.12259 76.327597 
L 114.978993 74.960115 
L 115.835396 74.808173 
L 116.263597 74.504288 
L 117.12 74.200403 
L 118.832806 74.04846 
L 120.545612 73.440691 
L 120.973813 73.136806 
L 121.402014 72.984863 
L 121.830216 72.680978 
L 122.686619 72.529036 
L 123.971223 71.921266 
L 124.399424 71.313496 
L 125.255827 71.161554 
L 125.684029 70.705727 
L 126.540432 70.553784 
L 127.825036 70.097957 
L 129.10964 69.338245 
L 131.250647 68.882417 
L 131.678849 68.730475 
L 143.668489 67.21105 
L 144.953094 66.603281 
L 146.665899 65.995511 
L 151.376115 65.539683 
L 151.804317 65.387741 
L 154.373525 64.628029 
L 154.801727 64.324144 
L 155.658129 64.020259 
L 159.083741 63.716374 
L 159.511942 63.412489 
L 160.368345 63.108604 
L 160.796547 62.804719 
L 165.078561 62.500835 
L 169.360576 61.893065 
L 170.216978 61.58918 
L 175.783597 61.133353 
L 176.64 60.829468 
L 178.781007 60.677525 
L 183.491223 60.525583 
L 184.347626 60.221698 
L 184.775827 59.917813 
L 186.060432 59.613928 
L 189.914245 59.310043 
L 190.770647 59.158101 
L 197.621871 58.702273 
L 199.762878 58.398388 
L 213.037122 57.486734 
L 230.593381 57.334791 
L 237.444604 56.575079 
L 242.15482 56.271194 
L 243.867626 56.119252 
L 344.494964 55.967309 
L 345.779568 55.815367 
L 360.338417 55.511482 
L 366.761439 55.35954 
L 371.471655 54.903712 
L 372.328058 54.75177 
L 378.322878 54.599827 
L 414.72 54.144 
L 414.72 54.144 
" style="fill:none;stroke:#000080;stroke-dasharray:4,6.6;stroke-dashoffset:0;stroke-width:4;"/>
   </g>
   <g id="line2d_17">
    <path clip-path="url(#pde38989bf4)" d="M 57.6 307.584 
L 414.72 54.144 
" style="fill:none;stroke:#000000;stroke-dasharray:7.4,3.2;stroke-dashoffset:0;stroke-width:2;"/>
   </g>
   <g id="patch_3">
    <path d="M 57.6 307.584 
L 57.6 41.472 
" style="fill:none;stroke:#000000;stroke-linecap:square;stroke-linejoin:miter;stroke-width:0.8;"/>
   </g>
   <g id="patch_4">
    <path d="M 414.72 307.584 
L 414.72 41.472 
" style="fill:none;stroke:#000000;stroke-linecap:square;stroke-linejoin:miter;stroke-width:0.8;"/>
   </g>
   <g id="patch_5">
    <path d="M 57.6 307.584 
L 414.72 307.584 
" style="fill:none;stroke:#000000;stroke-linecap:square;stroke-linejoin:miter;stroke-width:0.8;"/>
   </g>
   <g id="patch_6">
    <path d="M 57.6 41.472 
L 414.72 41.472 
" style="fill:none;stroke:#000000;stroke-linecap:square;stroke-linejoin:miter;stroke-width:0.8;"/>
   </g>
   <g id="text_15">
    <!-- ROC Curves -->
    <g transform="translate(178.854 35.472)scale(0.192 -0.192)">
     <defs>
      <path d="M 2522 4238 
Q 1834 4238 1429 3725 
Q 1025 3213 1025 2328 
Q 1025 1447 1429 934 
Q 1834 422 2522 422 
Q 3209 422 3611 934 
Q 4013 1447 4013 2328 
Q 4013 3213 3611 3725 
Q 3209 4238 2522 4238 
z
M 2522 4750 
Q 3503 4750 4090 4092 
Q 4678 3434 4678 2328 
Q 4678 1225 4090 567 
Q 3503 -91 2522 -91 
Q 1538 -91 948 565 
Q 359 1222 359 2328 
Q 359 3434 948 4092 
Q 1538 4750 2522 4750 
z
" id="DejaVuSans-4f" transform="scale(0.015625)"/>
      <path d="M 4122 4306 
L 4122 3641 
Q 3803 3938 3442 4084 
Q 3081 4231 2675 4231 
Q 1875 4231 1450 3742 
Q 1025 3253 1025 2328 
Q 1025 1406 1450 917 
Q 1875 428 2675 428 
Q 3081 428 3442 575 
Q 3803 722 4122 1019 
L 4122 359 
Q 3791 134 3420 21 
Q 3050 -91 2638 -91 
Q 1578 -91 968 557 
Q 359 1206 359 2328 
Q 359 3453 968 4101 
Q 1578 4750 2638 4750 
Q 3056 4750 3426 4639 
Q 3797 4528 4122 4306 
z
" id="DejaVuSans-43" transform="scale(0.015625)"/>
     </defs>
     <use xlink:href="#DejaVuSans-52"/>
     <use x="69.482422" xlink:href="#DejaVuSans-4f"/>
     <use x="148.193359" xlink:href="#DejaVuSans-43"/>
     <use x="218.017578" xlink:href="#DejaVuSans-20"/>
     <use x="249.804688" xlink:href="#DejaVuSans-43"/>
     <use x="319.628906" xlink:href="#DejaVuSans-75"/>
     <use x="383.007812" xlink:href="#DejaVuSans-72"/>
     <use x="424.121094" xlink:href="#DejaVuSans-76"/>
     <use x="483.300781" xlink:href="#DejaVuSans-65"/>
     <use x="544.824219" xlink:href="#DejaVuSans-73"/>
    </g>
   </g>
   <g id="legend_1">
    <g id="patch_7">
     <path d="M 28.2175 299.584 
L 403.52 299.584 
Q 406.72 299.584 406.72 296.384 
L 406.72 204.044 
Q 406.72 200.844 403.52 200.844 
L 28.2175 200.844 
Q 25.0175 200.844 25.0175 204.044 
L 25.0175 296.384 
Q 25.0175 299.584 28.2175 299.584 
z
" style="fill:#ffffff;opacity:0.8;stroke:#cccccc;stroke-linejoin:miter;"/>
    </g>
    <g id="line2d_18">
     <path d="M 31.4175 213.8015 
L 63.4175 213.8015 
" style="fill:none;stroke:#000000;stroke-linecap:square;stroke-width:2;"/>
    </g>
    <g id="line2d_19"/>
    <g id="text_16">
     <!-- ROC curve of class -1 (area = 0.95) -->
     <g transform="translate(76.2175 219.4015)scale(0.16 -0.16)">
      <defs>
       <path d="M 3122 3366 
L 3122 2828 
Q 2878 2963 2633 3030 
Q 2388 3097 2138 3097 
Q 1578 3097 1268 2742 
Q 959 2388 959 1747 
Q 959 1106 1268 751 
Q 1578 397 2138 397 
Q 2388 397 2633 464 
Q 2878 531 3122 666 
L 3122 134 
Q 2881 22 2623 -34 
Q 2366 -91 2075 -91 
Q 1284 -91 818 406 
Q 353 903 353 1747 
Q 353 2603 823 3093 
Q 1294 3584 2113 3584 
Q 2378 3584 2631 3529 
Q 2884 3475 3122 3366 
z
" id="DejaVuSans-63" transform="scale(0.015625)"/>
       <path d="M 2375 4863 
L 2375 4384 
L 1825 4384 
Q 1516 4384 1395 4259 
Q 1275 4134 1275 3809 
L 1275 3500 
L 2222 3500 
L 2222 3053 
L 1275 3053 
L 1275 0 
L 697 0 
L 697 3053 
L 147 3053 
L 147 3500 
L 697 3500 
L 697 3744 
Q 697 4328 969 4595 
Q 1241 4863 1831 4863 
L 2375 4863 
z
" id="DejaVuSans-66" transform="scale(0.015625)"/>
       <path d="M 313 2009 
L 1997 2009 
L 1997 1497 
L 313 1497 
L 313 2009 
z
" id="DejaVuSans-2d" transform="scale(0.015625)"/>
       <path d="M 1984 4856 
Q 1566 4138 1362 3434 
Q 1159 2731 1159 2009 
Q 1159 1288 1364 580 
Q 1569 -128 1984 -844 
L 1484 -844 
Q 1016 -109 783 600 
Q 550 1309 550 2009 
Q 550 2706 781 3412 
Q 1013 4119 1484 4856 
L 1984 4856 
z
" id="DejaVuSans-28" transform="scale(0.015625)"/>
       <path d="M 678 2906 
L 4684 2906 
L 4684 2381 
L 678 2381 
L 678 2906 
z
M 678 1631 
L 4684 1631 
L 4684 1100 
L 678 1100 
L 678 1631 
z
" id="DejaVuSans-3d" transform="scale(0.015625)"/>
       <path d="M 703 97 
L 703 672 
Q 941 559 1184 500 
Q 1428 441 1663 441 
Q 2288 441 2617 861 
Q 2947 1281 2994 2138 
Q 2813 1869 2534 1725 
Q 2256 1581 1919 1581 
Q 1219 1581 811 2004 
Q 403 2428 403 3163 
Q 403 3881 828 4315 
Q 1253 4750 1959 4750 
Q 2769 4750 3195 4129 
Q 3622 3509 3622 2328 
Q 3622 1225 3098 567 
Q 2575 -91 1691 -91 
Q 1453 -91 1209 -44 
Q 966 3 703 97 
z
M 1959 2075 
Q 2384 2075 2632 2365 
Q 2881 2656 2881 3163 
Q 2881 3666 2632 3958 
Q 2384 4250 1959 4250 
Q 1534 4250 1286 3958 
Q 1038 3666 1038 3163 
Q 1038 2656 1286 2365 
Q 1534 2075 1959 2075 
z
" id="DejaVuSans-39" transform="scale(0.015625)"/>
       <path d="M 691 4666 
L 3169 4666 
L 3169 4134 
L 1269 4134 
L 1269 2991 
Q 1406 3038 1543 3061 
Q 1681 3084 1819 3084 
Q 2600 3084 3056 2656 
Q 3513 2228 3513 1497 
Q 3513 744 3044 326 
Q 2575 -91 1722 -91 
Q 1428 -91 1123 -41 
Q 819 9 494 109 
L 494 744 
Q 775 591 1075 516 
Q 1375 441 1709 441 
Q 2250 441 2565 725 
Q 2881 1009 2881 1497 
Q 2881 1984 2565 2268 
Q 2250 2553 1709 2553 
Q 1456 2553 1204 2497 
Q 953 2441 691 2322 
L 691 4666 
z
" id="DejaVuSans-35" transform="scale(0.015625)"/>
       <path d="M 513 4856 
L 1013 4856 
Q 1481 4119 1714 3412 
Q 1947 2706 1947 2009 
Q 1947 1309 1714 600 
Q 1481 -109 1013 -844 
L 513 -844 
Q 928 -128 1133 580 
Q 1338 1288 1338 2009 
Q 1338 2731 1133 3434 
Q 928 4138 513 4856 
z
" id="DejaVuSans-29" transform="scale(0.015625)"/>
      </defs>
      <use xlink:href="#DejaVuSans-52"/>
      <use x="69.482422" xlink:href="#DejaVuSans-4f"/>
      <use x="148.193359" xlink:href="#DejaVuSans-43"/>
      <use x="218.017578" xlink:href="#DejaVuSans-20"/>
      <use x="249.804688" xlink:href="#DejaVuSans-63"/>
      <use x="304.785156" xlink:href="#DejaVuSans-75"/>
      <use x="368.164062" xlink:href="#DejaVuSans-72"/>
      <use x="409.277344" xlink:href="#DejaVuSans-76"/>
      <use x="468.457031" xlink:href="#DejaVuSans-65"/>
      <use x="529.980469" xlink:href="#DejaVuSans-20"/>
      <use x="561.767578" xlink:href="#DejaVuSans-6f"/>
      <use x="622.949219" xlink:href="#DejaVuSans-66"/>
      <use x="658.154297" xlink:href="#DejaVuSans-20"/>
      <use x="689.941406" xlink:href="#DejaVuSans-63"/>
      <use x="744.921875" xlink:href="#DejaVuSans-6c"/>
      <use x="772.705078" xlink:href="#DejaVuSans-61"/>
      <use x="833.984375" xlink:href="#DejaVuSans-73"/>
      <use x="886.083984" xlink:href="#DejaVuSans-73"/>
      <use x="938.183594" xlink:href="#DejaVuSans-20"/>
      <use x="969.970703" xlink:href="#DejaVuSans-2d"/>
      <use x="1006.054688" xlink:href="#DejaVuSans-31"/>
      <use x="1069.677734" xlink:href="#DejaVuSans-20"/>
      <use x="1101.464844" xlink:href="#DejaVuSans-28"/>
      <use x="1140.478516" xlink:href="#DejaVuSans-61"/>
      <use x="1201.757812" xlink:href="#DejaVuSans-72"/>
      <use x="1240.621094" xlink:href="#DejaVuSans-65"/>
      <use x="1302.144531" xlink:href="#DejaVuSans-61"/>
      <use x="1363.423828" xlink:href="#DejaVuSans-20"/>
      <use x="1395.210938" xlink:href="#DejaVuSans-3d"/>
      <use x="1479" xlink:href="#DejaVuSans-20"/>
      <use x="1510.787109" xlink:href="#DejaVuSans-30"/>
      <use x="1574.410156" xlink:href="#DejaVuSans-2e"/>
      <use x="1606.197266" xlink:href="#DejaVuSans-39"/>
      <use x="1669.820312" xlink:href="#DejaVuSans-35"/>
      <use x="1733.443359" xlink:href="#DejaVuSans-29"/>
     </g>
    </g>
    <g id="line2d_20">
     <path d="M 31.4175 237.2865 
L 63.4175 237.2865 
" style="fill:none;stroke:#00bc00;stroke-linecap:square;stroke-width:2;"/>
    </g>
    <g id="line2d_21"/>
    <g id="text_17">
     <!-- ROC curve of class 1 (area = 0.95) -->
     <g transform="translate(76.2175 242.8865)scale(0.16 -0.16)">
      <use xlink:href="#DejaVuSans-52"/>
      <use x="69.482422" xlink:href="#DejaVuSans-4f"/>
      <use x="148.193359" xlink:href="#DejaVuSans-43"/>
      <use x="218.017578" xlink:href="#DejaVuSans-20"/>
      <use x="249.804688" xlink:href="#DejaVuSans-63"/>
      <use x="304.785156" xlink:href="#DejaVuSans-75"/>
      <use x="368.164062" xlink:href="#DejaVuSans-72"/>
      <use x="409.277344" xlink:href="#DejaVuSans-76"/>
      <use x="468.457031" xlink:href="#DejaVuSans-65"/>
      <use x="529.980469" xlink:href="#DejaVuSans-20"/>
      <use x="561.767578" xlink:href="#DejaVuSans-6f"/>
      <use x="622.949219" xlink:href="#DejaVuSans-66"/>
      <use x="658.154297" xlink:href="#DejaVuSans-20"/>
      <use x="689.941406" xlink:href="#DejaVuSans-63"/>
      <use x="744.921875" xlink:href="#DejaVuSans-6c"/>
      <use x="772.705078" xlink:href="#DejaVuSans-61"/>
      <use x="833.984375" xlink:href="#DejaVuSans-73"/>
      <use x="886.083984" xlink:href="#DejaVuSans-73"/>
      <use x="938.183594" xlink:href="#DejaVuSans-20"/>
      <use x="969.970703" xlink:href="#DejaVuSans-31"/>
      <use x="1033.59375" xlink:href="#DejaVuSans-20"/>
      <use x="1065.380859" xlink:href="#DejaVuSans-28"/>
      <use x="1104.394531" xlink:href="#DejaVuSans-61"/>
      <use x="1165.673828" xlink:href="#DejaVuSans-72"/>
      <use x="1204.537109" xlink:href="#DejaVuSans-65"/>
      <use x="1266.060547" xlink:href="#DejaVuSans-61"/>
      <use x="1327.339844" xlink:href="#DejaVuSans-20"/>
      <use x="1359.126953" xlink:href="#DejaVuSans-3d"/>
      <use x="1442.916016" xlink:href="#DejaVuSans-20"/>
      <use x="1474.703125" xlink:href="#DejaVuSans-30"/>
      <use x="1538.326172" xlink:href="#DejaVuSans-2e"/>
      <use x="1570.113281" xlink:href="#DejaVuSans-39"/>
      <use x="1633.736328" xlink:href="#DejaVuSans-35"/>
      <use x="1697.359375" xlink:href="#DejaVuSans-29"/>
     </g>
    </g>
    <g id="line2d_22">
     <path d="M 31.4175 260.7715 
L 63.4175 260.7715 
" style="fill:none;stroke:#ff1493;stroke-dasharray:4,6.6;stroke-dashoffset:0;stroke-width:4;"/>
    </g>
    <g id="line2d_23"/>
    <g id="text_18">
     <!-- micro-average ROC curve (area = 0.95) -->
     <g transform="translate(76.2175 266.3715)scale(0.16 -0.16)">
      <defs>
       <path d="M 3328 2828 
Q 3544 3216 3844 3400 
Q 4144 3584 4550 3584 
Q 5097 3584 5394 3201 
Q 5691 2819 5691 2113 
L 5691 0 
L 5113 0 
L 5113 2094 
Q 5113 2597 4934 2840 
Q 4756 3084 4391 3084 
Q 3944 3084 3684 2787 
Q 3425 2491 3425 1978 
L 3425 0 
L 2847 0 
L 2847 2094 
Q 2847 2600 2669 2842 
Q 2491 3084 2119 3084 
Q 1678 3084 1418 2786 
Q 1159 2488 1159 1978 
L 1159 0 
L 581 0 
L 581 3500 
L 1159 3500 
L 1159 2956 
Q 1356 3278 1631 3431 
Q 1906 3584 2284 3584 
Q 2666 3584 2933 3390 
Q 3200 3197 3328 2828 
z
" id="DejaVuSans-6d" transform="scale(0.015625)"/>
       <path d="M 2906 1791 
Q 2906 2416 2648 2759 
Q 2391 3103 1925 3103 
Q 1463 3103 1205 2759 
Q 947 2416 947 1791 
Q 947 1169 1205 825 
Q 1463 481 1925 481 
Q 2391 481 2648 825 
Q 2906 1169 2906 1791 
z
M 3481 434 
Q 3481 -459 3084 -895 
Q 2688 -1331 1869 -1331 
Q 1566 -1331 1297 -1286 
Q 1028 -1241 775 -1147 
L 775 -588 
Q 1028 -725 1275 -790 
Q 1522 -856 1778 -856 
Q 2344 -856 2625 -561 
Q 2906 -266 2906 331 
L 2906 616 
Q 2728 306 2450 153 
Q 2172 0 1784 0 
Q 1141 0 747 490 
Q 353 981 353 1791 
Q 353 2603 747 3093 
Q 1141 3584 1784 3584 
Q 2172 3584 2450 3431 
Q 2728 3278 2906 2969 
L 2906 3500 
L 3481 3500 
L 3481 434 
z
" id="DejaVuSans-67" transform="scale(0.015625)"/>
      </defs>
      <use xlink:href="#DejaVuSans-6d"/>
      <use x="97.412109" xlink:href="#DejaVuSans-69"/>
      <use x="125.195312" xlink:href="#DejaVuSans-63"/>
      <use x="180.175781" xlink:href="#DejaVuSans-72"/>
      <use x="219.039062" xlink:href="#DejaVuSans-6f"/>
      <use x="282.095703" xlink:href="#DejaVuSans-2d"/>
      <use x="318.179688" xlink:href="#DejaVuSans-61"/>
      <use x="379.458984" xlink:href="#DejaVuSans-76"/>
      <use x="438.638672" xlink:href="#DejaVuSans-65"/>
      <use x="500.162109" xlink:href="#DejaVuSans-72"/>
      <use x="541.275391" xlink:href="#DejaVuSans-61"/>
      <use x="602.554688" xlink:href="#DejaVuSans-67"/>
      <use x="666.03125" xlink:href="#DejaVuSans-65"/>
      <use x="727.554688" xlink:href="#DejaVuSans-20"/>
      <use x="759.341797" xlink:href="#DejaVuSans-52"/>
      <use x="828.824219" xlink:href="#DejaVuSans-4f"/>
      <use x="907.535156" xlink:href="#DejaVuSans-43"/>
      <use x="977.359375" xlink:href="#DejaVuSans-20"/>
      <use x="1009.146484" xlink:href="#DejaVuSans-63"/>
      <use x="1064.126953" xlink:href="#DejaVuSans-75"/>
      <use x="1127.505859" xlink:href="#DejaVuSans-72"/>
      <use x="1168.619141" xlink:href="#DejaVuSans-76"/>
      <use x="1227.798828" xlink:href="#DejaVuSans-65"/>
      <use x="1289.322266" xlink:href="#DejaVuSans-20"/>
      <use x="1321.109375" xlink:href="#DejaVuSans-28"/>
      <use x="1360.123047" xlink:href="#DejaVuSans-61"/>
      <use x="1421.402344" xlink:href="#DejaVuSans-72"/>
      <use x="1460.265625" xlink:href="#DejaVuSans-65"/>
      <use x="1521.789062" xlink:href="#DejaVuSans-61"/>
      <use x="1583.068359" xlink:href="#DejaVuSans-20"/>
      <use x="1614.855469" xlink:href="#DejaVuSans-3d"/>
      <use x="1698.644531" xlink:href="#DejaVuSans-20"/>
      <use x="1730.431641" xlink:href="#DejaVuSans-30"/>
      <use x="1794.054688" xlink:href="#DejaVuSans-2e"/>
      <use x="1825.841797" xlink:href="#DejaVuSans-39"/>
      <use x="1889.464844" xlink:href="#DejaVuSans-35"/>
      <use x="1953.087891" xlink:href="#DejaVuSans-29"/>
     </g>
    </g>
    <g id="line2d_24">
     <path d="M 31.4175 284.2565 
L 63.4175 284.2565 
" style="fill:none;stroke:#000080;stroke-dasharray:4,6.6;stroke-dashoffset:0;stroke-width:4;"/>
    </g>
    <g id="line2d_25"/>
    <g id="text_19">
     <!-- macro-average ROC curve (area = 0.95) -->
     <g transform="translate(76.2175 289.8565)scale(0.16 -0.16)">
      <use xlink:href="#DejaVuSans-6d"/>
      <use x="97.412109" xlink:href="#DejaVuSans-61"/>
      <use x="158.691406" xlink:href="#DejaVuSans-63"/>
      <use x="213.671875" xlink:href="#DejaVuSans-72"/>
      <use x="252.535156" xlink:href="#DejaVuSans-6f"/>
      <use x="315.591797" xlink:href="#DejaVuSans-2d"/>
      <use x="351.675781" xlink:href="#DejaVuSans-61"/>
      <use x="412.955078" xlink:href="#DejaVuSans-76"/>
      <use x="472.134766" xlink:href="#DejaVuSans-65"/>
      <use x="533.658203" xlink:href="#DejaVuSans-72"/>
      <use x="574.771484" xlink:href="#DejaVuSans-61"/>
      <use x="636.050781" xlink:href="#DejaVuSans-67"/>
      <use x="699.527344" xlink:href="#DejaVuSans-65"/>
      <use x="761.050781" xlink:href="#DejaVuSans-20"/>
      <use x="792.837891" xlink:href="#DejaVuSans-52"/>
      <use x="862.320312" xlink:href="#DejaVuSans-4f"/>
      <use x="941.03125" xlink:href="#DejaVuSans-43"/>
      <use x="1010.855469" xlink:href="#DejaVuSans-20"/>
      <use x="1042.642578" xlink:href="#DejaVuSans-63"/>
      <use x="1097.623047" xlink:href="#DejaVuSans-75"/>
      <use x="1161.001953" xlink:href="#DejaVuSans-72"/>
      <use x="1202.115234" xlink:href="#DejaVuSans-76"/>
      <use x="1261.294922" xlink:href="#DejaVuSans-65"/>
      <use x="1322.818359" xlink:href="#DejaVuSans-20"/>
      <use x="1354.605469" xlink:href="#DejaVuSans-28"/>
      <use x="1393.619141" xlink:href="#DejaVuSans-61"/>
      <use x="1454.898438" xlink:href="#DejaVuSans-72"/>
      <use x="1493.761719" xlink:href="#DejaVuSans-65"/>
      <use x="1555.285156" xlink:href="#DejaVuSans-61"/>
      <use x="1616.564453" xlink:href="#DejaVuSans-20"/>
      <use x="1648.351562" xlink:href="#DejaVuSans-3d"/>
      <use x="1732.140625" xlink:href="#DejaVuSans-20"/>
      <use x="1763.927734" xlink:href="#DejaVuSans-30"/>
      <use x="1827.550781" xlink:href="#DejaVuSans-2e"/>
      <use x="1859.337891" xlink:href="#DejaVuSans-39"/>
      <use x="1922.960938" xlink:href="#DejaVuSans-35"/>
      <use x="1986.583984" xlink:href="#DejaVuSans-29"/>
     </g>
    </g>
   </g>
  </g>
 </g>
 <defs>
  <clipPath id="pde38989bf4">
   <rect height="266.112" width="357.12" x="57.6" y="41.472"/>
  </clipPath>
 </defs>
</svg>
